<?xml version="1.0" standalone="no"?>
<!DOCTYPE svg PUBLIC "-//W3C//DTD SVG 20010904//EN"
 "http://www.w3.org/TR/2001/REC-SVG-20010904/DTD/svg10.dtd">
<svg version="1.0" xmlns="http://www.w3.org/2000/svg"
 width="400.000000pt" height="400.000000pt" viewBox="0 0 400.000000 400.000000"
 preserveAspectRatio="xMidYMid meet">
<metadata>
Created by potrace 1.11, written by Peter Selinger 2001-2013
</metadata>
<g transform="translate(0.000000,400.000000) scale(0.100000,-0.100000)"
fill="#000000" stroke="none">
<path d="M1638 3923 c23 -2 61 -2 85 0 23 2 4 4 -43 4 -47 0 -66 -2 -42 -4z"/>
<path d="M1528 3913 c12 -2 30 -2 40 0 9 3 -1 5 -23 4 -22 0 -30 -2 -17 -4z"/>
<path d="M1813 3913 c15 -2 37 -2 50 0 12 2 0 4 -28 4 -27 0 -38 -2 -22 -4z"/>
<path d="M1413 3903 c9 -2 23 -2 30 0 6 3 -1 5 -18 5 -16 0 -22 -2 -12 -5z"/>
<path d="M1938 3903 c7 -3 16 -2 19 1 4 3 -2 6 -13 5 -11 0 -14 -3 -6 -6z"/>
<path d="M1358 3893 c6 -2 18 -2 25 0 6 3 1 5 -13 5 -14 0 -19 -2 -12 -5z"/>
<path d="M1978 3893 c7 -3 16 -2 19 1 4 3 -2 6 -13 5 -11 0 -14 -3 -6 -6z"/>
<path d="M1285 3880 c-13 -5 -14 -9 -5 -9 8 0 24 4 35 9 13 5 14 9 5 9 -8 0
-24 -4 -35 -9z"/>
<path d="M2018 3883 c7 -3 16 -2 19 1 4 3 -2 6 -13 5 -11 0 -14 -3 -6 -6z"/>
<path d="M1238 3863 c7 -3 16 -2 19 1 4 3 -2 6 -13 5 -11 0 -14 -3 -6 -6z"/>
<path d="M2071 3867 c2 -1 15 -11 29 -22 l25 -20 -19 23 c-11 12 -24 22 -29
22 -6 0 -8 -1 -6 -3z"/>
<path d="M1190 3850 c-8 -5 -10 -10 -5 -10 6 0 17 5 25 10 8 5 11 10 5 10 -5
0 -17 -5 -25 -10z"/>
<path d="M1125 3820 c-3 -6 1 -7 9 -4 18 7 21 14 7 14 -6 0 -13 -4 -16 -10z"/>
<path d="M2085 3802 c-24 -13 -82 -17 -290 -23 -177 -5 -290 -13 -355 -25 -52
-9 -106 -17 -119 -17 -19 1 -21 -1 -10 -9 10 -7 8 -8 -9 -5 -13 3 -21 3 -18 0
3 -3 -27 -21 -67 -40 -71 -34 -157 -105 -157 -130 0 -7 10 -13 22 -13 20 0 21
-1 3 -20 -10 -11 -23 -17 -29 -13 -6 3 -8 3 -4 -2 4 -4 -8 -24 -27 -44 -19
-20 -35 -39 -35 -43 0 -3 -22 -20 -50 -37 -27 -17 -67 -47 -90 -67 l-40 -37
19 47 c11 25 16 46 12 46 -5 0 -21 -29 -35 -65 -14 -35 -42 -87 -61 -113 -34
-49 -56 -93 -69 -142 -4 -14 9 8 28 48 19 39 37 72 40 72 5 0 -42 -158 -56
-183 -5 -10 -7 -21 -5 -23 3 -3 17 28 32 68 71 194 75 204 118 245 23 22 60
53 81 69 l40 29 -42 -77 c-23 -42 -42 -83 -42 -92 0 -9 -4 -16 -9 -16 -11 0
-9 -50 3 -69 7 -11 5 -13 -7 -8 -9 3 -20 1 -24 -6 -12 -18 -11 -57 2 -49 5 3
-2 -10 -17 -30 -16 -20 -28 -39 -28 -41 0 -2 -14 -34 -30 -71 -25 -54 -34 -65
-44 -57 -10 9 -15 8 -20 -5 -10 -26 -7 -41 5 -24 8 11 9 6 3 -20 -4 -19 -7
-46 -6 -59 0 -18 -2 -21 -9 -10 -14 22 -31 -9 -25 -47 5 -38 -26 -96 -48 -88
-11 4 -12 13 -5 37 15 52 9 66 -7 15 -8 -26 -19 -50 -24 -53 -6 -3 -10 -29
-10 -57 0 -42 2 -48 14 -39 11 9 15 3 20 -36 4 -27 9 -61 12 -77 5 -21 3 -27
-7 -21 -9 6 -11 4 -6 -8 15 -40 28 -100 32 -153 2 -33 5 -59 6 -59 0 0 9 -38
20 -85 17 -78 19 -45 3 40 -4 23 -3 32 3 25 12 -12 31 -103 42 -200 7 -56 9
-61 9 -25 1 25 -3 78 -8 119 -6 41 -8 76 -6 78 2 2 21 -5 42 -16 21 -12 44
-21 51 -21 12 0 19 -57 27 -208 3 -81 3 -82 -15 -66 -11 10 -22 14 -25 11 -17
-16 53 -206 103 -282 24 -36 83 -206 86 -247 1 -9 6 -14 11 -11 5 4 7 -1 3
-11 -4 -9 -3 -15 1 -12 5 3 18 -17 29 -44 l21 -50 -28 15 c-35 18 -60 19 -60
3 0 -12 129 -137 142 -138 4 0 26 -30 48 -67 23 -38 46 -77 53 -88 7 -11 17
-24 23 -30 32 -32 82 -104 76 -110 -4 -5 -2 -5 5 -2 13 8 56 -41 47 -54 -3 -5
-2 -9 3 -8 25 4 44 -2 37 -13 -4 -7 -4 -10 1 -6 4 4 22 -5 40 -20 18 -15 40
-33 51 -40 16 -11 16 -11 -6 -2 -24 11 -24 10 -6 -4 11 -9 25 -16 30 -16 6 0
33 -16 61 -35 76 -55 158 -91 328 -145 21 -6 79 -12 130 -12 70 -1 98 -5 117
-18 33 -23 70 -42 70 -36 0 2 -17 15 -37 28 l-38 23 90 6 90 5 -98 2 c-87 2
-102 5 -135 27 l-37 25 160 1 c236 1 249 0 232 -17 -9 -9 -46 -9 -172 0 -124
9 -135 2 -24 -16 126 -20 227 -13 316 22 43 16 86 30 96 30 9 0 17 6 17 13 0
13 50 50 85 63 20 8 20 8 1 -21 -32 -49 -102 -138 -127 -162 -13 -12 -44 -33
-69 -47 -25 -14 -40 -26 -34 -26 17 0 97 54 132 91 19 19 54 62 80 97 25 34
52 62 60 62 7 0 10 5 7 10 -11 18 13 38 65 55 49 16 60 30 75 99 3 15 27 51
53 80 64 69 89 101 75 92 -9 -5 -10 3 -6 28 3 18 0 50 -6 69 -11 31 -9 41 19
95 16 33 30 63 30 67 0 5 23 43 50 86 31 48 56 101 64 136 23 100 37 185 32
191 -3 3 -6 0 -6 -6 0 -7 -6 -12 -13 -12 -12 0 -77 -151 -77 -180 0 -19 -51
-165 -68 -197 -7 -12 -26 -32 -43 -44 l-31 -22 7 34 c4 19 14 45 23 59 32 50
59 106 76 158 10 28 22 50 27 46 5 -3 9 7 9 23 0 15 10 57 21 93 29 92 50 169
55 209 2 19 12 43 21 53 9 10 11 18 5 18 -11 0 -7 58 6 90 3 8 7 31 8 50 1 19
7 98 13 175 6 77 10 174 9 215 -1 65 -2 58 -10 -50 -5 -68 -14 -127 -20 -131
-6 -4 -6 -13 2 -26 9 -14 10 -33 2 -73 l-10 -55 -2 65 c-1 36 -4 81 -6 100 -2
19 -6 58 -8 85 -4 50 -41 218 -51 235 -3 4 -16 66 -30 137 -27 143 -66 306
-90 372 -21 61 -20 63 23 45 62 -27 69 -26 19 1 -26 14 -51 23 -56 21 -5 -3
-20 34 -35 82 -65 209 -73 209 -22 1 l33 -137 -75 75 c-121 121 -342 276 -585
410 -67 37 -149 77 -182 90 -33 12 -53 22 -45 23 18 0 -79 49 -99 50 -8 0 -12
2 -10 4 2 3 34 1 70 -4 71 -8 224 -77 309 -139 49 -35 59 -38 56 -15 -3 20
-32 37 -48 28 -7 -4 -8 -3 -4 4 5 8 -26 28 -86 57 -51 25 -84 43 -73 41 63
-16 110 -24 113 -21 4 4 -38 16 -143 40 -38 9 -108 31 -155 49 -98 39 -236 72
-330 81 -35 3 -68 9 -73 14 -11 11 392 20 413 9 40 -21 153 -68 156 -65 2 2
-35 21 -82 42 -81 36 -85 40 -61 48 15 5 27 13 27 18 0 5 -1 9 -2 8 -2 -1 -16
-8 -33 -17z m-300 -81 l100 -18 -77 0 c-43 0 -75 3 -73 7 2 3 -27 6 -64 6 -38
-1 -68 -3 -66 -6 7 -12 -106 -3 -118 10 -9 10 -9 12 0 6 7 -4 21 -2 30 3 27
16 157 12 268 -8z m-325 -1 c10 -6 2 -7 -25 -3 -49 7 -58 13 -19 13 16 0 36
-5 44 -10z m-82 -26 c9 -7 -60 -34 -70 -28 -7 4 -8 3 -4 -4 7 -12 -11 -17 -43
-13 -7 2 -10 -2 -7 -7 4 -6 -3 -8 -16 -4 -21 5 -21 5 -1 13 12 4 24 12 27 18
4 5 -8 3 -25 -6 -28 -14 -30 -18 -16 -28 14 -10 13 -12 -4 -23 -11 -7 -25 -10
-31 -6 -7 4 -8 3 -4 -4 8 -14 -30 -36 -46 -26 -7 4 -8 3 -4 -4 5 -8 0 -12 -13
-12 -12 0 -23 0 -26 0 -3 0 -5 2 -5 5 0 3 2 5 5 5 3 0 19 16 36 35 17 19 36
35 42 35 6 0 2 -7 -9 -16 -18 -15 -18 -15 2 -5 15 7 25 7 34 -2 12 -10 12 -9
0 6 -17 23 -8 32 66 62 51 21 95 24 112 9z m552 -29 c10 -12 9 -15 -4 -15 -10
0 -15 4 -12 9 4 5 0 12 -6 14 -8 4 -9 6 -2 6 6 1 17 -6 24 -14z m65 -5 c18 -8
17 -9 -7 -9 -16 -1 -28 4 -28 9 0 12 8 12 35 0z m-2 -37 c-13 -2 -33 -2 -45 0
-13 2 -3 4 22 4 25 0 35 -2 23 -4z m-707 -30 c-9 -9 -67 -13 -62 -4 3 4 19 8
37 9 17 0 29 -2 25 -5z m599 -13 c3 -5 1 -10 -4 -10 -6 0 -11 5 -11 10 0 6 2
10 4 10 3 0 8 -4 11 -10z m-730 -40 c-3 -5 -1 -10 4 -10 6 0 11 5 11 10 0 6 8
10 18 10 16 -1 16 -1 -1 -11 -9 -6 -14 -15 -11 -21 5 -8 1 -9 -10 -5 -9 4 -15
3 -11 -2 6 -11 -55 -61 -74 -61 -7 0 -26 -7 -44 -16 l-32 -16 35 37 c32 34
107 95 117 95 2 0 1 -4 -2 -10z m1123 -59 c11 -6 10 -10 -4 -15 -9 -3 -19 -4
-22 -1 -3 3 1 5 9 5 11 0 11 2 -1 10 -8 5 -10 10 -5 10 6 0 16 -4 23 -9z
m-318 -21 c-8 -5 -19 -10 -25 -10 -5 0 -3 5 5 10 8 5 20 10 25 10 6 0 3 -5 -5
-10z m411 -26 c34 -15 56 -31 52 -37 -4 -6 0 -8 11 -4 10 4 15 3 11 -3 -3 -6
2 -10 12 -10 25 0 75 -35 66 -45 -5 -4 -3 -5 4 -1 14 8 153 -79 257 -161 83
-66 251 -231 244 -239 -4 -3 -24 0 -47 6 -31 8 -39 14 -35 28 4 11 3 13 -3 5
-7 -9 -19 -9 -53 2 -36 11 -41 21 -8 16 4 0 4 7 1 16 -4 11 -3 14 5 9 8 -4 12
-1 12 10 0 10 -3 14 -6 11 -4 -4 -23 6 -43 22 -20 15 -48 31 -63 35 -15 3 -33
13 -41 21 -8 8 -17 12 -20 9 -3 -3 -14 -1 -24 6 -16 10 -15 10 7 6 23 -5 23
-4 -2 6 -16 7 -28 15 -28 20 0 11 11 10 30 -2 9 -5 19 -5 27 2 14 11 18 29 6
27 -20 -3 -46 2 -40 8 8 8 -12 33 -26 33 -6 0 -2 -7 9 -16 19 -15 19 -16 -1
-10 -19 6 -19 5 -2 -8 17 -13 16 -14 -3 -19 -13 -3 -18 -1 -13 6 4 6 0 8 -11
4 -14 -5 -15 -3 -6 13 8 16 8 18 -4 14 -15 -6 -70 18 -99 44 -13 11 -20 13
-25 5 -5 -7 -11 -7 -20 3 -10 11 -8 13 17 10 17 -2 32 -1 34 3 2 3 2 0 0 -7
-1 -7 2 -10 7 -7 6 3 20 -1 32 -9 24 -17 38 -20 38 -8 0 4 -20 18 -45 31 -24
13 -42 28 -38 34 3 6 1 7 -5 3 -6 -4 -22 0 -34 8 -24 16 -40 11 -52 -14 -3 -8
-4 -3 -1 12 4 23 -1 31 -31 52 -24 16 -31 26 -22 30 7 3 0 4 -17 1 -18 -4 -25
-2 -17 3 12 8 -21 27 -78 46 -11 3 -10 5 4 5 10 1 45 -11 77 -25z m-1257 -2
c2 -4 -4 -8 -14 -8 -10 0 -16 4 -14 8 3 4 9 8 14 8 5 0 11 -4 14 -8z m-53 -20
c-7 -13 -6 -23 2 -32 7 -7 -1 -4 -18 6 -16 11 -26 14 -22 8 3 -6 -5 -22 -18
-34 -14 -13 -25 -27 -25 -32 0 -5 11 3 25 18 15 16 25 22 25 13 0 -11 2 -11
11 1 9 13 10 13 6 0 -2 -8 -9 -16 -15 -16 -7 -1 -17 -2 -22 -3 -6 0 -10 -9 -8
-18 2 -12 -3 -17 -14 -15 -10 2 -18 -2 -18 -9 0 -6 -7 -9 -14 -6 -10 4 -13 1
-9 -8 3 -8 10 -12 16 -8 6 4 1 -7 -11 -25 -14 -19 -28 -29 -37 -25 -8 3 -15
-1 -15 -8 0 -7 -2 -10 -5 -7 -3 2 14 42 38 89 37 74 47 87 87 106 55 27 53 27
41 5z m649 4 c0 -2 -7 -7 -16 -10 -8 -3 -12 -2 -9 4 6 10 25 14 25 6z m-623
-21 c0 -8 -4 -12 -9 -9 -5 3 -6 10 -3 15 9 13 12 11 12 -6z m111 -13 c-2 -11
-15 -16 -40 -17 -21 -1 -35 2 -32 6 2 5 12 5 22 2 9 -3 14 -3 10 2 -9 10 23
35 35 28 4 -3 7 -12 5 -21z m-78 -37 c7 -9 8 -15 2 -15 -5 0 -12 7 -16 15 -3
8 -4 15 -2 15 2 0 9 -7 16 -15z m569 -11 c-6 -8 -33 -26 -59 -40 -27 -15 -50
-34 -52 -43 -4 -14 9 -16 114 -17 65 0 118 3 118 8 0 4 -10 8 -22 9 -13 0 2 7
32 14 45 11 66 11 123 0 38 -7 74 -18 80 -24 6 -6 24 -11 39 -11 41 0 35 -14
-22 -50 -27 -18 -50 -34 -50 -36 0 -2 27 9 60 26 46 23 58 34 53 47 -5 12 -3
14 8 8 8 -5 23 -9 33 -10 11 0 21 -7 23 -15 3 -10 2 -11 -4 -4 -6 9 -11 9 -19
-1 -9 -9 -6 -12 16 -13 15 0 47 -10 71 -21 23 -12 49 -21 57 -21 20 0 112 -61
112 -74 0 -6 5 -4 10 4 9 13 11 13 20 0 9 -13 11 -13 19 -1 8 12 13 12 35 -2
14 -9 33 -26 44 -37 22 -24 123 -60 169 -60 18 0 33 -4 33 -8 0 -5 9 -18 21
-30 11 -12 17 -26 14 -31 -3 -5 -1 -12 4 -15 21 -14 19 13 -4 44 -34 47 -31
52 6 10 45 -53 124 -174 120 -185 -1 -5 1 -7 4 -3 22 22 114 -180 206 -451
l38 -113 -80 -76 c-45 -42 -96 -100 -115 -129 -44 -69 -44 -83 0 -18 18 28 71
86 116 129 l83 79 13 -25 c7 -13 27 -60 44 -104 17 -43 36 -83 41 -88 21 -22
-1 -142 -51 -276 -17 -47 -39 -106 -47 -132 -9 -27 -20 -48 -25 -48 -10 0 -11
18 -9 195 2 141 -18 308 -38 328 -31 31 -33 -40 -6 -273 32 -274 22 -368 -56
-528 -58 -121 -58 -120 -67 -107 -10 14 -112 88 -144 104 -52 27 -78 -8 -79
-110 -1 -33 -3 -59 -5 -59 -15 0 -64 47 -64 60 0 25 -38 55 -120 94 -78 38
-100 42 -130 26 -13 -7 -35 -4 -79 10 -46 16 -66 18 -81 10 -24 -13 -25 -18
-5 -40 27 -30 -17 -33 -48 -4 -15 13 -32 24 -39 24 -24 0 7 17 55 30 26 7 47
16 47 21 0 10 -48 2 -102 -17 -20 -7 -39 -9 -43 -6 -4 4 -34 16 -68 28 -34 11
-61 25 -60 30 1 5 -20 10 -45 10 -26 1 -71 11 -101 23 -30 11 -57 19 -59 17
-10 -11 134 -67 152 -60 7 3 28 -2 47 -10 33 -15 33 -15 7 -16 -15 0 -30 5
-33 10 -3 6 -11 10 -17 10 -7 0 -7 -4 0 -13 9 -10 -15 -19 -111 -41 -164 -38
-206 -50 -255 -75 -23 -12 -62 -24 -87 -28 -64 -8 -70 -32 -11 -38 11 -1 24
-3 28 -4 17 -3 -58 -66 -81 -67 -14 -1 -28 -3 -31 -4 -3 -1 -9 -2 -13 -1 -4 1
-3 -7 2 -18 6 -10 7 -22 3 -26 -4 -3 -1 -5 7 -3 7 2 16 -3 18 -11 5 -11 -8
-13 -60 -9 -73 4 -77 6 -80 37 -1 11 -7 23 -14 25 -7 3 -13 11 -13 17 0 6 -15
32 -34 58 -18 25 -46 78 -61 116 -37 94 -153 328 -168 340 -7 6 -18 24 -25 40
-8 17 -31 58 -53 92 -37 56 -41 70 -49 155 -13 125 -12 191 0 183 14 -9 12 9
-2 24 -14 14 -15 14 90 -29 30 -12 56 -19 59 -17 4 5 -98 56 -138 70 -11 4
-18 23 -22 67 -4 34 -5 66 -2 70 3 5 6 75 6 156 0 81 4 155 9 164 12 23 29
133 22 144 -3 5 -11 0 -19 -10 -13 -18 -14 -18 -9 6 3 14 10 51 15 82 11 62
37 112 54 101 6 -3 7 -1 3 5 -7 12 17 56 25 48 2 -3 20 19 40 47 22 33 42 52
54 52 13 0 21 8 23 22 2 14 8 20 18 16 10 -4 12 0 7 13 -5 13 -3 16 10 11 9
-3 19 -2 22 3 4 6 11 10 16 10 6 0 -1 -10 -15 -22 -26 -24 -47 -98 -28 -98 6
0 13 8 16 18 3 9 17 29 30 43 14 15 23 29 20 31 -2 3 4 5 14 5 9 0 22 -7 29
-16 11 -14 12 -14 13 2 0 9 -4 17 -10 17 -17 0 -11 37 8 45 54 24 73 11 51
-33 -14 -27 -18 -30 -22 -15 -2 10 -4 0 -4 -22 1 -22 -2 -61 -5 -87 -3 -29 -1
-54 6 -63 10 -13 20 -5 68 53 65 79 158 163 236 212 28 18 52 37 52 42 0 30
-246 -180 -305 -261 -16 -22 -34 -41 -39 -41 -15 0 2 101 24 137 11 20 18 38
15 41 -3 3 -5 -1 -5 -8 0 -7 -3 -11 -6 -7 -6 6 37 71 82 122 20 24 23 25 14 7
-6 -13 -9 -26 -6 -29 3 -3 9 2 12 11 4 11 9 14 13 7 5 -7 14 -4 28 8 11 11 23
17 26 14 3 -3 3 6 0 19 -3 15 -2 19 4 10 6 -7 17 -10 28 -6 18 7 18 8 -1 15
-14 6 -10 8 17 8 19 1 41 7 48 14 11 10 13 10 7 0 -13 -23 9 -14 44 17 18 17
38 30 43 30 6 0 2 9 -8 20 -10 11 -15 23 -12 27 4 3 7 1 7 -5 0 -7 5 -12 11
-12 5 0 7 4 4 10 -3 6 1 7 10 3 13 -4 14 -8 4 -14 -8 -4 -10 -11 -7 -15 11
-10 60 25 52 38 -4 7 -3 8 5 4 9 -6 9 -11 0 -22z m-585 -9 c3 -8 1 -15 -4 -15
-6 0 -10 7 -10 15 0 8 2 15 4 15 2 0 6 -7 10 -15z m653 -28 c3 -23 0 -27 -34
-32 -21 -3 -46 -8 -56 -10 -24 -5 -48 5 -42 16 3 4 13 5 22 2 10 -4 14 -2 10
4 -7 10 19 28 36 25 4 -1 7 3 7 9 0 5 5 7 10 4 15 -9 2 -26 -17 -23 -9 2 -17
-3 -19 -10 -1 -7 0 -8 2 -3 3 6 11 8 17 6 7 -3 23 4 37 15 18 15 20 18 6 13
-14 -4 -17 -3 -12 6 12 19 29 8 33 -22z m363 29 c0 -2 -8 -10 -17 -17 -16 -13
-17 -12 -4 4 13 16 21 21 21 13z m385 -14 c-3 -3 -11 0 -18 7 -9 10 -8 11 6 5
10 -3 15 -9 12 -12z m-1058 -14 c-3 -8 -6 -5 -6 6 -1 11 2 17 5 13 3 -3 4 -12
1 -19z m969 -4 c2 -12 -1 -13 -12 -3 -7 6 -11 16 -8 21 7 11 17 3 20 -18z
m-1331 6 c4 -6 3 -9 -2 -8 -4 2 -9 0 -11 -4 -4 -11 -51 -57 -60 -59 -4 0 -14
-6 -22 -12 -8 -6 8 12 35 40 58 60 52 56 60 43z m88 -7 c-7 -2 -19 -2 -25 0
-7 3 -2 5 12 5 14 0 19 -2 13 -5z m327 -13 c0 -11 -6 -20 -14 -20 -12 0 -14
14 -7 38 1 1 6 2 11 2 6 0 10 -9 10 -20z m1033 13 c-7 -2 -19 -2 -25 0 -7 3
-2 5 12 5 14 0 19 -2 13 -5z m-1244 -37 c-2 -2 -15 -7 -29 -10 l-25 -7 23 14
c12 7 21 16 19 19 -2 3 1 2 6 -3 6 -5 9 -10 6 -13z m66 14 c3 -5 1 -10 -4 -10
-6 0 -11 5 -11 10 0 6 2 10 4 10 3 0 8 -4 11 -10z m92 -12 c-3 -8 -6 -5 -6 6
-1 11 2 17 5 13 3 -3 4 -12 1 -19z m-241 -5 c-2 -9 -9 -19 -17 -21 -11 -3 -11
-1 1 7 8 6 11 11 7 11 -5 0 -5 5 -2 10 9 15 14 12 11 -7z m-101 -31 c-3 -3
-11 0 -18 7 -9 10 -8 11 6 5 10 -3 15 -9 12 -12z m175 8 c0 -5 -5 -10 -11 -10
-5 0 -7 5 -4 10 3 6 8 10 11 10 2 0 4 -4 4 -10z m-203 -16 c-3 -3 -12 -4 -19
-1 -8 3 -5 6 6 6 11 1 17 -2 13 -5z m159 -6 c-10 -6 -22 -6 -26 -2 -5 5 3 10
18 11 22 1 24 0 8 -9z m-201 -15 c-4 -10 -8 -23 -9 -30 -1 -7 -5 -15 -9 -19
-3 -4 -4 5 -1 20 2 14 0 26 -6 26 -10 0 -13 -9 -13 -42 0 -9 -5 -14 -12 -11
-7 2 -16 0 -20 -6 -3 -6 -1 -11 4 -11 6 0 11 -5 11 -10 0 -7 -6 -7 -20 0 -11
6 -20 8 -20 5 0 -15 3 -20 11 -17 6 1 6 -5 0 -17 -6 -10 -7 -22 -3 -27 4 -5 0
-3 -8 3 -13 10 -16 8 -15 -12 0 -13 4 -27 9 -32 5 -5 7 -1 3 8 -4 13 -1 16 15
11 12 -3 19 -1 16 4 -8 14 48 69 56 55 4 -6 1 -11 -8 -11 -9 0 -16 -5 -16 -11
0 -6 -7 -17 -15 -26 -8 -8 -13 -19 -10 -23 6 -10 -41 -90 -53 -90 -4 0 -14 6
-22 13 -12 10 -12 9 -1 -5 10 -14 9 -21 -5 -43 -9 -14 -18 -24 -20 -23 -1 2 2
26 7 53 6 28 12 62 14 76 2 15 11 43 19 63 8 20 12 36 9 36 -3 0 0 6 6 13 6 8
7 17 3 21 -4 4 -2 7 3 6 20 -4 36 0 31 9 -8 12 41 54 53 46 6 -3 11 -1 11 4 0
6 3 11 6 11 3 0 3 -8 -1 -17z m269 -5 c-6 -21 -5 -22 12 -8 11 9 9 4 -5 -13
-18 -20 -28 -24 -37 -16 -8 7 -19 7 -30 1 -14 -8 -12 -10 11 -16 15 -4 25 -9
22 -12 -3 -3 -21 1 -40 10 -33 13 -37 13 -52 -4 -9 -10 -24 -16 -32 -13 -12 5
-12 8 -1 19 7 7 20 14 28 16 8 2 21 9 29 16 11 10 16 11 21 1 4 -6 13 -8 19
-4 7 4 18 1 26 -5 21 -17 19 -1 -2 24 -17 19 -17 20 -1 7 15 -11 19 -11 24 3
9 24 16 19 8 -6z m-247 -10 c-3 -8 -6 -5 -6 6 -1 11 2 17 5 13 3 -3 4 -12 1
-19z m1550 7 c0 -8 -4 -12 -9 -9 -5 3 -6 10 -3 15 9 13 12 11 12 -6z m-1683
-30 c-9 -14 -18 -25 -21 -25 -5 0 5 18 20 38 17 22 18 13 1 -13z m1806 15 c0
-5 -7 -7 -15 -4 -8 4 -15 8 -15 10 0 2 7 4 15 4 8 0 15 -4 15 -10z m-245 -9
c3 -5 0 -13 -6 -17 -7 -4 -9 -3 -5 4 3 5 0 13 -6 15 -9 4 -10 6 -1 6 6 1 14
-3 18 -8z m-1383 -33 c-7 -7 -12 -8 -12 -2 0 14 12 26 19 19 2 -3 -1 -11 -7
-17z m-77 -8 c-3 -5 -11 -10 -16 -10 -6 0 -7 5 -4 10 3 6 11 10 16 10 6 0 7
-4 4 -10z m33 -14 c-7 -8 -15 -12 -17 -11 -5 6 10 25 20 25 5 0 4 -6 -3 -14z
m-202 -33 c-3 -4 -6 -1 -6 6 0 7 -4 9 -10 6 -11 -7 -14 8 -3 19 4 3 11 -1 16
-9 5 -9 6 -19 3 -22z m264 33 c0 -2 -8 -10 -17 -17 -16 -13 -17 -12 -4 4 13
16 21 21 21 13z m1575 -18 c0 -6 6 -13 13 -16 7 -2 10 2 6 12 -7 18 -4 19 20
10 15 -6 15 -8 -1 -20 -16 -12 -16 -15 -3 -24 8 -5 11 -10 7 -10 -5 0 -5 -5
-1 -11 4 -7 10 -7 16 -1 7 7 19 7 35 1 29 -11 64 3 42 16 -7 5 -14 4 -17 -3
-2 -8 -10 -8 -30 0 -42 18 -49 29 -11 18 42 -12 42 -12 33 2 -8 13 12 3 39
-20 23 -21 21 -35 -4 -27 -13 4 -19 3 -15 -3 3 -5 -6 -9 -20 -9 -14 0 -28 6
-31 14 -4 10 -9 11 -18 3 -9 -8 -20 -1 -41 27 -25 33 -44 77 -26 58 4 -4 7
-12 7 -17z m-11 -44 c7 -19 2 -18 -19 6 -16 17 -16 20 -3 15 9 -4 19 -13 22
-21z m-39 6 c3 -6 -1 -7 -9 -4 -18 7 -21 14 -7 14 6 0 13 -4 16 -10z m-1630
-10 c-3 -5 -12 -10 -18 -10 -7 0 -6 4 3 10 19 12 23 12 15 0z m1590 -20 c3 -5
-1 -10 -9 -10 -8 0 -18 5 -21 10 -3 6 1 10 9 10 8 0 18 -4 21 -10z m49 -8 c3
-5 -1 -9 -9 -9 -8 0 -12 4 -9 9 3 4 7 8 9 8 2 0 6 -4 9 -8z m41 -12 c3 -5 1
-10 -4 -10 -6 0 -11 5 -11 10 0 6 2 10 4 10 3 0 8 -4 11 -10z m-1889 -52 c-26
-59 -42 -153 -27 -162 5 -3 12 13 16 36 15 102 19 107 27 38 6 -55 3 -157 -8
-210 -1 -8 -3 -46 -4 -85 -1 -38 -4 -61 -7 -50 -2 11 -20 84 -39 162 l-35 142
46 91 c50 99 67 120 31 38z m49 -33 c-11 -59 -13 -64 -14 -29 -1 36 17 111 24
102 1 -2 -3 -34 -10 -73z m1983 49 c14 -2 54 -15 90 -29 36 -14 76 -25 90 -23
29 3 22 20 79 -192 37 -137 72 -290 67 -290 -9 0 -72 135 -67 143 3 6 2 7 -4
4 -6 -4 -27 18 -48 48 -20 30 -42 55 -47 55 -5 0 -8 8 -6 17 2 10 -1 18 -7 18
-13 1 -74 57 -89 83 -20 36 -50 76 -88 124 -26 31 -34 48 -26 51 7 2 17 2 23
-1 5 -3 20 -7 33 -8z m231 -59 c0 -13 -5 -8 -14 15 -18 46 -17 74 0 35 8 -16
14 -39 14 -50z m-2314 -275 c14 -69 28 -135 31 -147 2 -13 0 -23 -6 -23 -6 0
-8 5 -4 12 4 7 3 8 -5 4 -9 -6 -9 -11 -1 -21 7 -8 7 -16 2 -19 -12 -7 -26 22
-24 49 l2 20 -9 -20 c-5 -13 -3 -28 6 -42 13 -19 12 -23 -5 -32 -34 -18 -44
27 -38 171 4 111 13 185 21 176 2 -2 15 -59 30 -128z m-70 -69 l-7 -44 -19 33
-20 33 23 44 23 44 3 -33 c2 -18 1 -52 -3 -77z m-93 9 c3 -17 2 -33 -2 -35 -3
-2 -7 12 -8 31 -3 42 4 45 10 4z m60 -48 c10 -23 21 -55 23 -72 5 -43 15 -70
26 -70 5 0 9 -5 9 -11 0 -5 -6 -7 -12 -4 -7 4 -6 0 3 -7 21 -17 73 -173 63
-189 -4 -8 -3 -9 4 -5 7 4 14 -4 18 -21 3 -15 7 -34 10 -40 4 -16 1 -16 -30
-2 -14 7 -23 16 -19 22 3 6 1 7 -5 4 -32 -21 -80 58 -101 165 -11 58 -36 230
-34 238 1 3 5 14 9 24 5 14 4 17 -4 12 -8 -5 -12 1 -12 16 1 23 1 23 16 3 9
-11 25 -39 36 -63z m2433 -74 c53 -108 91 -226 77 -240 -6 -6 -25 37 -52 118
-23 70 -51 147 -61 171 -32 75 -11 46 36 -49z m99 -134 c3 -13 7 -34 10 -47 3
-12 -4 -2 -15 22 -12 25 -22 49 -23 55 -1 6 -12 30 -24 53 -34 65 -26 64 13
-1 19 -32 37 -69 39 -82z m-2394 86 c0 -11 5 -20 10 -20 12 0 12 -130 0 -175
-7 -28 -11 -23 -14 18 -1 6 -4 14 -7 17 -13 11 -38 102 -32 117 4 11 3 14 -5
9 -19 -12 -14 6 10 31 26 28 38 29 38 3z m2419 -285 c22 -70 36 -132 27 -124
-12 12 -75 193 -69 202 8 13 20 -9 42 -78z m15 30 l6 -40 -15 45 c-17 53 -18
57 -6 45 5 -6 12 -28 15 -50z m-2561 25 c3 -11 1 -18 -4 -14 -5 3 -9 12 -9 20
0 20 7 17 13 -6z m2423 -267 c15 -109 18 -260 4 -208 -15 54 -41 281 -34 298
10 28 15 15 30 -90z m-2233 -228 c5 -22 0 -17 -18 20 -13 28 -24 55 -24 60 -1
20 37 -51 42 -80z m67 -70 c9 -22 33 -74 52 -115 52 -112 55 -133 9 -63 -23
34 -41 69 -41 77 0 8 -16 52 -35 98 -34 80 -21 83 15 3z m2255 -55 c-15 -45
-29 -80 -31 -78 -2 3 8 42 22 87 14 46 28 81 31 78 3 -3 -7 -42 -22 -87z
m-2271 20 l7 -25 -15 25 c-17 28 -21 50 -7 35 5 -6 12 -21 15 -35z m2308 -140
c-6 -16 -8 -37 -6 -47 3 -10 -2 -37 -10 -60 -15 -44 -66 -126 -66 -107 0 23
42 134 56 145 16 13 19 34 4 24 -14 -9 -13 3 7 54 18 47 32 40 15 -9z m-2240
-17 c18 -32 32 -62 30 -66 -1 -4 11 -27 27 -51 17 -24 27 -47 23 -51 -4 -5 -1
-4 7 0 11 6 13 4 8 -8 -3 -10 -3 -17 2 -17 5 0 14 -21 21 -47 6 -27 14 -54 16
-60 2 -10 -1 -10 -14 -2 -21 13 -101 182 -136 287 -13 39 -23 72 -21 72 2 0
18 -26 37 -57z m106 -105 c10 -24 22 -54 26 -68 7 -24 6 -24 -8 -6 -9 11 -16
27 -16 35 0 9 -7 29 -15 45 -16 30 -18 36 -11 36 2 0 13 -19 24 -42z m985 -50
c20 -10 18 -12 -23 -24 -25 -8 -58 -13 -75 -13 -17 1 -22 3 -12 6 9 2 17 13
17 24 0 15 7 19 36 19 19 0 45 -5 57 -12z m-103 -6 c0 -10 -60 -32 -87 -32
-12 0 -30 3 -40 7 -13 6 -5 10 32 19 61 15 95 17 95 6z m361 -28 c57 -19 60
-39 5 -40 -38 -1 -91 30 -81 47 8 12 19 11 76 -7z m226 -41 c29 -14 62 -36 74
-49 27 -29 17 -31 -19 -5 -15 10 -56 35 -92 55 -71 41 -46 40 37 -1z m283 1
c19 -13 54 -41 78 -61 l42 -38 -15 -55 c-18 -66 -20 -161 -3 -178 9 -9 9 -12
0 -12 -7 0 -28 18 -47 39 -40 44 -110 81 -155 81 -25 0 -30 -4 -30 -24 0 -40
121 -116 185 -116 25 0 37 -26 28 -60 -7 -25 -9 -25 -40 -1 -28 23 -123 45
-160 38 -19 -3 -35 6 -74 44 -27 26 -49 52 -49 58 0 5 15 11 33 13 28 3 32 7
35 37 2 18 -1 38 -7 44 -23 23 -8 25 56 6 70 -20 153 -25 153 -11 0 15 -34 38
-77 52 -27 8 -43 20 -47 34 -9 33 -7 92 4 121 12 31 33 28 90 -11z m-1130 21
c0 -9 -46 -29 -83 -35 -51 -10 -38 1 26 22 29 9 53 16 55 17 1 1 2 -1 2 -4z
m400 -4 c-14 -4 -38 -11 -55 -15 -29 -7 -29 -7 -10 8 11 8 36 15 55 15 31 -1
32 -1 10 -8z m-102 -7 c-3 -3 -27 -12 -54 -20 -52 -15 -53 -7 -1 12 35 13 63
17 55 8z m182 -2 c0 -4 -11 -9 -26 -10 -14 -1 -23 2 -19 8 7 12 45 14 45 2z
m214 -7 c3 -8 1 -15 -4 -15 -6 0 -10 7 -10 15 0 8 2 15 4 15 2 0 6 -7 10 -15z
m146 -85 l55 -51 -52 30 c-28 16 -71 49 -95 72 l-43 42 40 -21 c22 -11 65 -44
95 -72z m63 12 c36 -24 37 -27 21 -39 -15 -11 -24 -7 -68 35 -28 26 -62 55
-76 65 -37 26 77 -31 123 -61z m-1394 -71 l22 -43 -25 18 c-14 11 -23 25 -21
32 3 7 1 10 -5 7 -18 -11 -50 20 -56 55 -3 19 -8 44 -11 55 -8 28 70 -71 96
-124z m996 119 c3 -5 -1 -10 -10 -10 -9 0 -13 5 -10 10 3 6 8 10 10 10 2 0 7
-4 10 -10z m80 -1 c-4 -6 -13 -8 -19 -6 -15 6 -10 -40 6 -60 10 -13 -68 8
-100 26 -14 9 -11 10 16 11 25 0 35 5 39 20 4 14 14 20 35 20 18 0 27 -4 23
-11z m-1266 -20 c22 -12 44 -35 54 -56 l16 -35 -24 22 c-14 13 -22 27 -18 33
3 6 2 7 -4 4 -5 -3 -25 7 -44 23 -40 34 -32 38 20 9z m975 12 c3 -4 -6 -6 -19
-3 -14 2 -25 6 -25 8 0 8 39 4 44 -5z m109 2 c-7 -2 -19 -2 -25 0 -7 3 -2 5
12 5 14 0 19 -2 13 -5z m-538 -18 c-32 -14 -41 -13 -30 4 3 6 18 11 33 10 l27
-1 -30 -13z m476 -11 c62 -1 96 -7 125 -22 21 -11 68 -27 104 -35 147 -36 185
-51 225 -89 22 -21 48 -40 58 -44 9 -3 17 -14 17 -24 0 -10 21 -40 48 -68 46
-49 47 -50 27 -65 -15 -12 -17 -18 -7 -25 21 -14 -97 -41 -181 -42 -43 0 -104
-6 -135 -14 -83 -21 -263 -29 -302 -13 -16 8 -27 17 -23 22 5 4 3 5 -4 2 -6
-4 -37 0 -69 8 -70 18 -126 19 -142 3 -9 -9 -22 0 -58 35 -26 26 -51 47 -56
47 -5 0 -6 5 -2 12 4 6 3 8 -3 5 -13 -8 -36 17 -25 28 4 5 2 5 -5 2 -16 -10
-44 3 -36 16 3 6 1 7 -5 3 -6 -3 -27 2 -47 13 -30 16 -33 20 -18 27 10 4 23 8
30 9 6 0 22 13 34 29 12 16 38 35 58 43 62 26 92 63 50 63 -33 0 -13 17 29 24
22 3 50 14 63 25 37 29 120 51 144 38 11 -6 59 -11 106 -13z m336 -13 l23 -26
-37 -3 c-44 -4 -83 14 -83 39 0 37 63 31 97 -10z m40 33 c-3 -3 -12 -4 -19 -1
-8 3 -5 6 6 6 11 1 17 -2 13 -5z m-904 -20 c-3 -8 -12 -13 -20 -10 -8 3 -22 7
-31 7 -9 1 -3 5 13 9 45 11 45 11 38 -6z m283 -3 c-3 -5 -20 -14 -38 -20 -31
-11 -31 -11 -13 9 18 19 62 29 51 11z m754 -73 c0 -5 -12 -9 -27 -10 -16 0
-35 -2 -43 -3 -8 -1 -20 3 -27 8 -7 5 -16 6 -20 4 -5 -3 -9 3 -10 13 -1 11 2
22 7 25 4 3 6 14 3 25 -5 18 3 16 56 -17 33 -21 61 -41 61 -45z m-889 50 c-5
-13 -18 -23 -34 -25 -21 -3 -25 0 -21 12 3 8 1 15 -5 15 -6 0 -11 5 -11 10 0
6 18 10 40 10 36 0 39 -2 31 -22z m29 7 c0 -8 -4 -15 -10 -15 -5 0 -7 7 -4 15
4 8 8 15 10 15 2 0 4 -7 4 -15z m40 11 c0 -3 -4 -8 -10 -11 -5 -3 -10 -1 -10
4 0 6 5 11 10 11 6 0 10 -2 10 -4z m684 -12 c3 -8 2 -12 -4 -9 -6 3 -10 10
-10 16 0 14 7 11 14 -7z m640 -46 c-23 -46 -27 -50 -36 -32 -6 10 -18 28 -27
39 -15 18 -15 19 2 6 15 -12 21 -10 50 12 17 14 33 26 35 27 1 0 -9 -23 -24
-52z m-1499 32 c3 -5 13 -7 23 -4 14 5 14 4 3 -4 -14 -10 -51 0 -51 13 0 9 19
5 25 -5z m-447 -25 c-3 -3 -9 2 -12 12 -6 14 -5 15 5 6 7 -7 10 -15 7 -18z
m428 -3 c-9 -9 -37 8 -31 18 5 8 11 7 21 -1 8 -6 12 -14 10 -17z m1134 3 c11
-13 8 -15 -21 -15 -31 0 -32 1 -13 15 10 8 20 15 20 15 1 0 7 -7 14 -15z m336
-50 c10 -19 8 -33 -12 -81 -13 -33 -24 -65 -24 -72 0 -8 -6 -12 -12 -10 -22 8
-27 70 -12 143 7 39 14 71 14 73 0 8 36 -33 46 -53z m-603 38 c-7 -2 -19 -2
-25 0 -7 3 -2 5 12 5 14 0 19 -2 13 -5z m-1227 -35 l19 -21 -27 18 c-29 18
-34 25 -20 25 5 0 17 -10 28 -22z m448 -3 c-9 -14 -25 -26 -35 -26 -28 -2 -76
-2 -101 0 -20 2 -19 4 7 13 32 11 125 36 138 37 4 1 0 -10 -9 -24z m76 18 c0
-1 -13 -9 -30 -18 -32 -16 -34 -16 -24 9 5 12 54 21 54 9z m876 -15 c-9 -12
-16 -33 -16 -45 0 -31 -8 -29 -47 9 l-34 33 53 11 c29 6 54 12 56 13 2 0 -4
-9 -12 -21z m124 12 c13 -9 13 -10 0 -9 -8 0 -24 4 -35 9 l-20 9 20 0 c11 0
27 -4 35 -9z m-1200 -4 c0 -2 -9 -6 -20 -9 -11 -3 -18 -1 -14 4 5 9 34 13 34
5z m1144 -61 c9 -31 -7 -47 -37 -39 -23 5 -27 11 -27 45 0 48 29 70 46 36 6
-12 14 -31 18 -42z m160 50 c45 -19 46 -27 4 -20 -50 9 -68 15 -68 26 0 13 22
11 64 -6z m-1364 -9 c0 -21 -27 -27 -42 -9 -11 14 -10 16 10 11 12 -4 20 -2
16 3 -3 5 0 9 5 9 6 0 11 -6 11 -14z m-229 -32 c28 -14 72 -28 99 -31 43 -5
50 -9 62 -37 7 -17 12 -35 10 -39 -1 -5 2 -6 6 -3 5 3 17 -3 27 -14 16 -18 16
-18 -4 -13 -11 3 -32 2 -46 -1 -19 -5 -25 -13 -25 -35 0 -16 6 -32 13 -34 7
-3 8 -6 1 -6 -6 -1 -32 15 -57 34 -47 36 -142 168 -133 184 4 5 0 12 -6 14 -7
3 -9 6 -5 6 4 1 30 -11 58 -25z m333 -8 c44 0 46 -1 30 -14 -11 -8 -34 -20
-51 -28 -28 -12 -38 -12 -73 2 -39 16 -40 17 -24 35 12 14 24 17 43 12 14 -4
48 -7 75 -7z m1505 -54 c1 -23 -39 -72 -59 -72 -13 0 -7 24 22 90 18 39 21 42
28 25 5 -11 9 -30 9 -43z m-224 -4 c17 -9 41 -28 54 -42 l24 -26 -25 0 c-38 0
-109 33 -141 65 -47 48 1 50 88 3z m-1406 6 c4 3 13 1 21 -5 11 -6 8 -9 -12
-9 -20 0 -28 5 -27 18 0 10 3 12 6 4 2 -6 8 -10 12 -8z m10 -33 c8 -5 9 -11 3
-15 -5 -3 -15 1 -22 9 -14 16 -3 20 19 6z m64 2 c-7 -2 -21 -2 -30 0 -10 3 -4
5 12 5 17 0 24 -2 18 -5z m137 -84 c44 -29 78 -54 76 -56 -4 -5 -198 77 -206
86 -3 3 -14 6 -24 6 -11 0 -21 6 -24 14 -4 11 5 13 47 8 40 -5 71 -18 131 -58z
m1378 11 c-24 -27 -46 -50 -49 -50 -3 0 -4 11 -1 25 3 16 16 31 38 41 19 9 37
20 40 25 3 5 7 9 10 9 3 0 -14 -22 -38 -50z m-1612 -7 c4 -10 6 -22 5 -26 -1
-5 3 -6 8 -3 5 3 14 -1 21 -9 17 -21 3 -19 -36 6 -34 21 -46 49 -20 49 8 0 17
-8 22 -17z m87 -42 c34 -32 72 -62 85 -66 13 -4 21 -9 19 -11 -9 -9 -77 25
-83 41 -3 8 -12 15 -19 15 -12 0 -75 64 -75 75 0 13 17 0 73 -54z m1454 37
c-3 -8 -6 -5 -6 6 -1 11 2 17 5 13 3 -3 4 -12 1 -19z m-1436 -25 c13 -16 12
-17 -3 -4 -17 13 -22 21 -14 21 2 0 10 -8 17 -17z m154 -33 c73 -29 94 -43 95
-62 0 -14 -58 -8 -74 7 -8 8 -19 15 -24 15 -5 0 -17 10 -28 21 -10 12 -32 31
-49 41 -33 22 -32 22 80 -22z m1059 25 c19 -14 18 -15 -16 -15 -36 0 -54 11
-41 24 11 10 37 6 57 -9z m130 -9 c52 -22 41 -30 -17 -12 -25 7 -48 12 -51 9
-3 -3 -15 3 -28 12 -23 17 -23 17 17 12 22 -2 58 -12 79 -21z m82 -24 c-8 -16
-13 -31 -11 -34 3 -2 0 -20 -5 -40 -8 -26 -19 -39 -40 -48 -42 -18 -49 -5 -16
29 15 16 28 32 27 35 -3 21 1 27 15 22 8 -3 13 -2 9 3 -5 9 26 73 33 66 2 -2
-3 -16 -12 -33z m-1523 -21 c6 -6 7 -11 3 -11 -5 0 -3 -7 4 -15 27 -33 -11
-13 -57 30 l-48 45 43 -19 c24 -10 49 -24 55 -30z m142 29 c10 -11 16 -20 13
-20 -3 0 -13 9 -23 20 -10 11 -16 20 -13 20 3 0 13 -9 23 -20z m1250 -20 c94
0 101 -8 30 -32 -31 -11 -64 -12 -145 -5 -103 9 -119 12 -108 22 9 9 92 23
113 19 11 -2 60 -4 110 -4z m-853 -31 c37 -12 68 -26 68 -31 0 -5 4 -6 10 -3
5 3 26 -3 46 -13 l37 -19 -80 -13 c-94 -14 -109 -11 -149 32 -20 21 -23 29
-11 25 11 -4 16 -3 12 4 -4 5 -15 7 -25 4 -10 -3 -25 1 -33 9 -8 8 -18 12 -22
8 -5 -4 -5 -1 -1 6 11 18 72 15 148 -9z m-500 -9 c7 -11 17 -20 23 -20 5 -1
28 -17 50 -36 22 -20 31 -31 20 -26 -11 5 -25 7 -31 5 -6 -2 -25 9 -42 25 -17
16 -34 27 -38 23 -4 -3 -5 1 -1 10 3 9 0 22 -6 28 -8 8 -8 11 1 11 6 0 17 -9
24 -20z m74 0 c26 -11 45 -23 42 -25 -2 -3 -27 6 -54 20 -60 29 -53 32 12 5z
m979 10 c6 -10 -2 -11 -107 -15 -70 -2 -67 7 5 16 82 10 95 10 102 -1z m-659
-72 c18 -12 21 -17 9 -13 -71 25 -72 25 -72 56 l0 29 18 -26 c9 -14 30 -35 45
-46z m1008 38 c-9 -15 -30 -36 -45 -47 -17 -12 -26 -26 -23 -32 4 -7 4 -9 -1
-5 -4 4 -16 3 -26 -2 -10 -6 -20 -6 -23 -1 -3 5 1 11 9 15 23 8 18 42 -7 53
-20 8 -13 12 45 23 37 7 70 17 73 22 3 5 8 7 11 5 2 -3 -3 -17 -13 -31z m-141
7 c-7 -2 -21 -2 -30 0 -10 3 -4 5 12 5 17 0 24 -2 18 -5z m-513 -13 c-8 -5
-26 -10 -40 -10 -20 0 -22 2 -10 10 8 5 26 10 40 10 20 0 22 -2 10 -10z m178
0 c-14 -4 -59 -11 -100 -14 -68 -6 -71 -6 -48 8 17 10 50 15 100 15 54 -1 67
-3 48 -9z m-648 -16 c0 -2 -7 -4 -15 -4 -8 0 -15 4 -15 10 0 5 7 7 15 4 8 -4
15 -8 15 -10z m-106 -24 c5 -5 14 -6 21 -4 6 3 18 -2 25 -11 11 -13 8 -15 -19
-15 -17 0 -39 8 -49 18 -10 9 -25 18 -33 20 -8 2 -18 7 -23 12 -5 5 8 5 30 -1
21 -6 43 -15 48 -19z m1121 -1 c3 -4 -7 -15 -22 -23 -25 -12 -38 -12 -113 3
l-85 17 80 15 c78 15 126 11 140 -12z m-308 15 c-3 -3 -12 -4 -19 -1 -8 3 -5
6 6 6 11 1 17 -2 13 -5z m-638 -21 c3 -4 17 -10 31 -11 41 -6 43 -18 3 -14
-20 3 -51 13 -67 24 l-31 19 29 -5 c16 -3 32 -9 35 -13z m548 11 c-3 -3 -12
-4 -19 -1 -8 3 -5 6 6 6 11 1 17 -2 13 -5z m-777 -27 c10 3 21 0 24 -6 4 -6 1
-11 -8 -11 -8 0 -16 -5 -18 -11 -2 -5 -15 2 -28 17 -19 20 -20 24 -6 17 10 -6
27 -8 36 -6z m185 -5 c-3 -3 -11 0 -18 7 -9 10 -8 11 6 5 10 -3 15 -9 12 -12z
m405 8 c11 -7 -2 -9 -44 -8 -42 2 -61 -2 -70 -13 -9 -12 -17 -13 -46 -3 l-35
12 40 7 c22 3 47 8 55 10 33 7 86 4 100 -5z m435 -14 c43 -10 55 -16 42 -21
-10 -4 -35 -4 -55 0 -20 4 -60 10 -89 14 -29 4 -55 10 -59 14 -12 12 97 7 161
-7z m-308 -2 c-3 -3 -12 -4 -19 -1 -8 3 -5 6 6 6 11 1 17 -2 13 -5z m121 -1
c-10 -2 -28 -2 -40 0 -13 2 -5 4 17 4 22 1 32 -1 23 -4z m-448 -13 c8 -5 11
-10 5 -10 -5 0 -17 5 -25 10 -8 5 -10 10 -5 10 6 0 17 -5 25 -10z m579 -16 c8
-8 -84 -2 -109 6 -16 6 -1 7 40 3 36 -3 67 -7 69 -9z m184 9 c-7 -2 -19 -2
-25 0 -7 3 -2 5 12 5 14 0 19 -2 13 -5z m-1050 -23 c18 0 26 -4 21 -11 -3 -6
7 -4 23 4 23 13 37 13 71 4 46 -12 56 -27 19 -27 -13 0 -31 -8 -40 -18 -20
-22 -26 -21 111 -21 69 -1 92 -4 86 -12 -4 -8 -3 -9 4 -5 6 4 37 -7 69 -24
l58 -31 -83 6 c-92 6 -173 24 -242 52 -56 23 -190 92 -190 97 0 3 15 0 32 -5
18 -5 46 -9 61 -9z m277 5 c46 -18 9 -18 -45 0 -31 10 -34 13 -15 13 14 0 41
-6 60 -13z m223 -6 c-5 -4 -26 -3 -48 1 l-40 8 48 -1 c26 0 44 -4 40 -8z m115
-20 c12 -19 12 -19 -10 -8 -13 7 -24 12 -25 11 -10 -7 -23 0 -18 8 10 17 40
11 53 -11z m46 6 c3 3 2 0 -3 -6 -10 -12 -31 -4 -31 13 0 7 4 7 13 -1 8 -6 17
-9 21 -6z m286 0 c33 -19 21 -19 -21 0 -19 8 -27 14 -19 14 8 0 26 -6 40 -14z
m70 11 c0 -9 -40 -13 -46 -5 -3 5 6 9 20 9 14 0 26 -2 26 -4z m-80 -25 c3 -1
-3 -6 -13 -12 -20 -12 -202 -15 -236 -4 -20 6 -20 8 -7 18 12 9 51 10 134 5
64 -3 119 -7 122 -7z m-488 0 c-12 -7 -62 -4 -62 5 0 2 17 4 38 4 23 0 32 -3
24 -9z m-244 -18 c-10 -2 -26 -2 -35 0 -10 3 -2 5 17 5 19 0 27 -2 18 -5z
m362 -3 c-8 -5 -28 -10 -45 -10 -23 0 -27 3 -15 10 8 5 29 10 45 10 23 0 27
-3 15 -10z m268 -27 c-10 -2 -26 -2 -35 0 -10 3 -2 5 17 5 19 0 27 -2 18 -5z
m12 -23 c-34 -11 -60 -11 -35 0 11 5 29 8 40 8 16 0 15 -2 -5 -8z"/>
<path d="M2773 3156 c15 -11 15 -15 3 -19 -8 -3 -17 -1 -19 6 -2 7 -8 9 -12 5
-4 -4 0 -15 10 -24 19 -19 69 -29 58 -11 -4 7 0 8 11 4 11 -4 15 -3 11 4 -4 6
-13 8 -21 5 -7 -3 -16 -1 -19 4 -3 4 0 10 6 12 6 2 -2 9 -17 16 -25 11 -27 11
-11 -2z m22 -36 c3 -5 2 -10 -4 -10 -5 0 -13 5 -16 10 -3 6 -2 10 4 10 5 0 13
-4 16 -10z"/>
<path d="M2830 3092 c0 -5 14 -19 31 -31 18 -13 28 -17 23 -10 -5 8 -9 19 -9
24 0 6 -9 9 -19 7 -11 -2 -15 1 -11 7 3 6 1 11 -4 11 -6 0 -11 -4 -11 -8z"/>
<path d="M2890 3066 c0 -2 8 -10 18 -17 15 -13 16 -12 3 4 -13 16 -21 21 -21
13z"/>
<path d="M2920 3020 c0 -5 5 -10 11 -10 5 0 7 5 4 10 -3 6 -8 10 -11 10 -2 0
-4 -4 -4 -10z"/>
<path d="M957 3323 c-4 -3 -7 -11 -7 -17 0 -6 5 -5 12 2 6 6 9 14 7 17 -3 3
-9 2 -12 -2z"/>
<path d="M922 3260 c-7 -11 -8 -21 -2 -25 5 -3 14 3 20 14 13 26 -2 35 -18 11z"/>
<path d="M1175 3391 c-3 -5 -1 -12 5 -16 5 -3 10 1 10 9 0 18 -6 21 -15 7z"/>
<path d="M1320 3135 c-6 -8 -10 -20 -7 -27 3 -8 6 -6 6 6 1 12 6 16 15 13 10
-4 13 -1 9 9 -6 17 -8 17 -23 -1z"/>
<path d="M1904 3092 c-128 -99 -202 -163 -250 -219 -62 -73 -78 -93 -72 -93 2
0 29 30 59 66 52 64 194 186 292 253 26 17 47 34 47 36 0 11 -19 0 -76 -43z"/>
<path d="M1211 3094 c0 -11 3 -14 6 -6 3 7 2 16 -1 19 -3 4 -6 -2 -5 -13z"/>
<path d="M1230 3094 c0 -8 5 -12 10 -9 6 4 8 11 5 16 -9 14 -15 11 -15 -7z"/>
<path d="M1009 2998 c0 -2 -2 -10 -4 -18 -2 -8 -6 -24 -10 -35 -3 -11 1 -7 10
8 10 17 21 25 28 20 7 -4 7 0 -2 10 -12 16 -20 21 -22 15z"/>
<path d="M926 2867 c3 -10 9 -15 12 -12 3 3 0 11 -7 18 -10 9 -11 8 -5 -6z"/>
<path d="M2688 2335 c-4 -4 -175 -50 -225 -61 -12 -2 -34 -9 -48 -14 -37 -14
-31 -3 8 14 38 17 21 21 -20 5 -15 -6 -82 -24 -148 -40 -66 -16 -100 -27 -75
-24 25 2 54 7 65 11 15 6 17 4 12 -10 -6 -15 -4 -17 10 -11 41 18 120 35 153
34 26 -1 29 -3 10 -6 -14 -2 -57 -13 -97 -23 -40 -11 -78 -17 -86 -14 -8 3
-20 -2 -27 -11 -16 -20 0 -20 63 -1 26 8 47 11 47 6 0 -4 -21 -13 -47 -20 -27
-7 -52 -17 -58 -22 -14 -13 45 1 175 40 140 42 209 54 278 50 28 -2 52 0 52 4
0 4 -26 8 -57 10 l-58 3 30 18 30 17 -30 -6 c-16 -4 -38 -11 -48 -16 -11 -5
-30 -7 -43 -4 -13 4 -34 2 -45 -4 -11 -6 -28 -10 -37 -7 -10 2 1 9 26 16 24 7
51 15 60 17 15 5 15 4 2 -5 -25 -18 1 -13 72 15 38 14 68 30 68 35 0 10 -4 12
-12 4z"/>
<path d="M1230 2293 c-45 -3 -60 -7 -50 -13 11 -7 4 -10 -25 -11 -22 0 -60 -4
-85 -9 -31 -5 1 -7 100 -5 80 1 110 0 68 -2 -45 -2 -78 -8 -78 -14 0 -7 36
-10 104 -7 57 1 99 0 93 -4 -15 -10 6 -26 43 -34 14 -3 39 -11 55 -19 33 -15
205 -26 205 -13 0 5 -13 11 -28 14 -16 3 -34 14 -40 25 -11 17 -9 19 25 19 55
0 34 10 -27 12 -31 2 -54 8 -57 15 -3 7 -23 16 -44 19 -22 4 -42 11 -45 16 -4
6 5 8 22 5 16 -3 47 -8 69 -12 72 -10 134 -28 129 -37 -3 -4 -1 -8 5 -8 5 0
12 4 16 10 3 5 -18 16 -47 25 -108 32 -207 39 -408 28z m148 -20 c-16 -2 -40
-2 -55 0 -16 2 -3 4 27 4 30 0 43 -2 28 -4z m19 -19 c-3 -3 -12 -4 -19 -1 -8
3 -5 6 6 6 11 1 17 -2 13 -5z m133 -58 l35 -16 -50 4 c-70 6 -114 16 -122 29
-9 15 95 2 137 -17z m36 8 c18 -14 18 -14 -6 -3 -31 14 -36 19 -24 19 6 0 19
-7 30 -16z"/>
<path d="M2108 2203 c7 -3 16 -2 19 1 4 3 -2 6 -13 5 -11 0 -14 -3 -6 -6z"/>
<path d="M985 2092 c9 -65 38 -156 73 -234 l29 -64 79 -18 c43 -10 89 -20 102
-23 12 -3 22 -3 22 0 0 3 -43 15 -96 28 -91 21 -96 24 -113 58 -10 20 -22 46
-25 59 -7 20 -4 22 28 22 19 0 37 3 39 8 3 4 -15 5 -39 3 -31 -2 -45 1 -48 10
-2 8 -8 30 -15 49 -6 20 -14 57 -17 83 -7 46 -6 47 21 47 35 0 30 5 -13 13
l-33 7 6 -48z"/>
<path d="M1555 2129 c39 -5 90 -13 115 -18 25 -5 47 -8 48 -6 8 8 -78 24 -153
29 l-80 5 70 -10z"/>
<path d="M1290 2119 c-30 -5 -95 -7 -145 -5 -80 4 -84 3 -35 -5 56 -10 182 -4
255 11 33 6 35 8 10 8 -16 0 -55 -5 -85 -9z"/>
<path d="M2740 2094 l-85 -13 75 4 c41 3 85 8 97 11 17 5 22 1 26 -18 4 -21 4
-20 6 5 1 31 7 30 -119 11z"/>
<path d="M1748 2082 c19 -21 27 -20 19 3 -4 8 -13 15 -22 15 -13 0 -12 -3 3
-18z"/>
<path d="M2580 2070 c-20 -6 -21 -8 -5 -8 11 0 34 4 50 8 27 7 27 8 5 8 -14 0
-36 -4 -50 -8z"/>
<path d="M2488 2053 c12 -2 32 -2 45 0 12 2 2 4 -23 4 -25 0 -35 -2 -22 -4z"/>
<path d="M2428 2043 c6 -2 18 -2 25 0 6 3 1 5 -13 5 -14 0 -19 -2 -12 -5z"/>
<path d="M2841 2034 c0 -11 3 -14 6 -6 3 7 2 16 -1 19 -3 4 -6 -2 -5 -13z"/>
<path d="M2363 2033 c9 -2 23 -2 30 0 6 3 -1 5 -18 5 -16 0 -22 -2 -12 -5z"/>
<path d="M1772 2000 c0 -19 2 -27 5 -17 2 9 2 25 0 35 -3 9 -5 1 -5 -18z"/>
<path d="M2273 2023 c15 -2 37 -2 50 0 12 2 0 4 -28 4 -27 0 -38 -2 -22 -4z"/>
<path d="M2122 1978 c-1 -25 -5 -55 -8 -65 -5 -17 -5 -17 6 0 6 9 9 39 7 65
l-3 47 -2 -47z"/>
<path d="M1336 1983 l71 -4 6 -42 c10 -77 105 -130 163 -92 30 19 54 71 54
115 l0 30 -182 -2 c-101 -1 -151 -4 -112 -5z m280 -45 c-9 -58 -39 -88 -88
-88 -46 0 -93 40 -103 87 l-6 32 78 4 c43 1 89 4 102 5 22 2 23 0 17 -40z"/>
<path d="M2363 1962 c-6 -4 27 -5 74 -3 83 3 86 3 80 -18 -8 -31 14 -91 40
-108 31 -21 90 -6 116 28 10 15 20 45 21 68 l2 41 -160 0 c-89 0 -166 -4 -173
-8z m315 -17 c2 -2 -1 -20 -8 -40 -12 -37 -52 -71 -70 -60 -5 3 -10 2 -10 -4
0 -6 -6 -8 -14 -5 -12 5 -46 90 -46 116 0 9 138 2 148 -7z"/>
<path d="M2830 1964 c0 -6 5 -15 11 -21 6 -6 8 -17 3 -24 -5 -9 -9 -8 -15 7
-5 13 -7 4 -7 -26 0 -25 3 -35 5 -22 3 13 11 26 19 29 8 3 14 10 14 17 -1 14
-30 54 -30 40z"/>
<path d="M1823 1933 c9 -2 23 -2 30 0 6 3 -1 5 -18 5 -16 0 -22 -2 -12 -5z"/>
<path d="M1913 1923 c26 -2 68 -2 95 0 26 2 4 3 -48 3 -52 0 -74 -1 -47 -3z"/>
<path d="M2068 1913 c6 -2 18 -2 25 0 6 3 1 5 -13 5 -14 0 -19 -2 -12 -5z"/>
<path d="M1782 1833 c-2 -76 -4 -82 -24 -86 l-23 -4 23 -2 c30 -1 34 12 29
100 l-3 74 -2 -82z"/>
<path d="M2806 1799 c-4 -28 -5 -53 -3 -56 3 -2 8 19 12 47 4 28 5 53 2 56 -2
3 -7 -19 -11 -47z"/>
<path d="M2120 1770 c0 -5 5 -10 11 -10 5 0 7 5 4 10 -3 6 -8 10 -11 10 -2 0
-4 -4 -4 -10z"/>
<path d="M1308 1743 c7 -3 16 -2 19 1 4 3 -2 6 -13 5 -11 0 -14 -3 -6 -6z"/>
<path d="M2188 1743 c7 -3 16 -2 19 1 4 3 -2 6 -13 5 -11 0 -14 -3 -6 -6z"/>
<path d="M1378 1733 c7 -3 16 -2 19 1 4 3 -2 6 -13 5 -11 0 -14 -3 -6 -6z"/>
<path d="M1565 1730 l-130 -6 125 -1 c69 -1 136 3 150 7 18 6 20 8 5 7 -11 -1
-78 -4 -150 -7z"/>
<path d="M2253 1733 c9 -2 25 -2 35 0 9 3 1 5 -18 5 -19 0 -27 -2 -17 -5z"/>
<path d="M2343 1723 c20 -2 54 -2 75 0 20 2 3 4 -38 4 -41 0 -58 -2 -37 -4z"/>
<path d="M2786 1713 c-6 -14 -5 -15 5 -6 7 7 10 15 7 18 -3 3 -9 -2 -12 -12z"/>
<path d="M2493 1713 c15 -2 39 -2 55 0 15 2 2 4 -28 4 -30 0 -43 -2 -27 -4z"/>
<path d="M2613 1703 c15 -2 37 -2 50 0 12 2 0 4 -28 4 -27 0 -38 -2 -22 -4z"/>
<path d="M2061 1670 c0 -8 4 -22 9 -30 12 -18 12 -2 0 25 -6 13 -9 15 -9 5z"/>
<path d="M2081 1608 c-1 -9 34 -50 76 -92 54 -53 74 -79 66 -87 -5 -5 -53 -25
-105 -43 -52 -18 -103 -39 -114 -45 -18 -12 -18 -12 1 -6 11 4 61 21 110 37
107 36 125 45 125 62 0 7 -33 46 -74 87 -40 41 -76 81 -79 89 -4 12 -6 12 -6
-2z"/>
<path d="M900 3000 c0 -5 5 -10 11 -10 5 0 7 5 4 10 -3 6 -8 10 -11 10 -2 0
-4 -4 -4 -10z"/>
<path d="M900 2966 c0 -2 8 -10 18 -17 15 -13 16 -12 3 4 -13 16 -21 21 -21
13z"/>
<path d="M1170 3140 c-9 -6 -10 -10 -3 -10 6 0 15 5 18 10 8 12 4 12 -15 0z"/>
<path d="M2790 2964 c0 -6 15 -23 32 -40 l33 -29 -25 30 c-14 17 -28 34 -32
40 -5 5 -8 5 -8 -1z"/>
<path d="M2821 2957 c2 -1 11 -8 21 -15 12 -10 18 -10 24 -1 4 7 3 9 -4 5 -6
-3 -13 -2 -17 4 -3 5 -11 10 -17 10 -6 0 -9 -1 -7 -3z"/>
<path d="M2865 2919 c-4 -6 -4 -13 -1 -16 3 -4 6 -1 6 6 0 7 5 9 12 5 7 -4 8
-3 4 4 -9 15 -13 15 -21 1z"/>
<path d="M2988 2893 c7 -3 16 -2 19 1 4 3 -2 6 -13 5 -11 0 -14 -3 -6 -6z"/>
<path d="M2020 989 c-253 -30 -304 -40 -289 -53 2 -2 42 3 89 10 244 39 318
46 430 41 74 -3 101 -2 75 3 -49 11 -217 10 -305 -1z"/>
<path d="M1735 761 c-3 -5 0 -13 6 -17 7 -4 9 -3 5 4 -3 6 2 13 11 15 16 4 16
5 1 6 -9 0 -19 -3 -23 -8z"/>
<path d="M1620 786 c0 -2 7 -7 16 -10 8 -3 12 -2 9 4 -6 10 -25 14 -25 6z"/>
<path d="M1440 786 c0 -2 8 -10 18 -17 15 -13 16 -12 3 4 -13 16 -21 21 -21
13z"/>
<path d="M1710 706 c0 -2 8 -10 18 -17 15 -13 16 -12 3 4 -13 16 -21 21 -21
13z"/>
<path d="M2885 680 c-3 -5 -1 -10 4 -10 6 0 11 5 11 10 0 6 -2 10 -4 10 -3 0
-8 -4 -11 -10z"/>
<path d="M1726 483 c-6 -14 -5 -15 5 -6 7 7 10 15 7 18 -3 3 -9 -2 -12 -12z"/>
<path d="M1058 3784 c-38 -20 -36 -28 2 -9 17 9 30 18 30 20 0 7 -1 6 -32 -11z"/>
<path d="M961 3714 c-29 -26 -58 -59 -66 -75 -22 -42 -18 -49 6 -9 11 19 43
56 72 82 29 26 49 48 46 48 -4 0 -30 -21 -58 -46z"/>
<path d="M1226 3718 c5 -8 2 -9 -10 -5 -10 4 -15 3 -11 -3 3 -6 1 -10 -6 -10
-7 0 -10 -3 -7 -6 4 -3 18 1 33 9 23 12 25 15 11 20 -11 5 -15 3 -10 -5z"/>
<path d="M2280 3680 c19 -11 40 -19 45 -19 6 0 -6 8 -25 19 -19 11 -39 19 -45
19 -5 0 6 -8 25 -19z"/>
<path d="M2407 3619 c7 -7 15 -10 18 -7 3 3 -2 9 -12 12 -14 6 -15 5 -6 -5z"/>
<path d="M2440 3606 c0 -2 16 -13 36 -25 19 -12 32 -16 29 -11 -7 11 -65 43
-65 36z"/>
<path d="M2395 3560 c27 -12 43 -12 25 0 -8 5 -22 9 -30 9 -10 0 -8 -3 5 -9z"/>
<path d="M2520 3557 c0 -3 12 -12 26 -22 15 -9 23 -12 20 -6 -7 11 -46 35 -46
28z"/>
<path d="M2440 3545 c0 -2 32 -21 70 -40 39 -19 70 -33 70 -30 0 2 -31 21 -70
40 -38 19 -70 33 -70 30z"/>
<path d="M2473 3455 c0 -8 48 -47 106 -86 58 -40 117 -82 132 -95 32 -30 48
-31 23 -1 l-19 22 22 -19 c12 -10 21 -23 20 -28 -1 -6 33 -35 76 -65 42 -30
77 -51 77 -46 0 8 -117 110 -212 186 -47 37 -212 147 -220 147 -3 0 -5 -7 -5
-15z m122 -72 c90 -59 134 -92 123 -93 -9 0 -228 150 -228 156 0 6 7 2 105
-63z"/>
<path d="M2610 3453 c46 -33 122 -108 131 -128 6 -16 8 -17 8 -3 1 21 -84 106
-131 131 -32 17 -32 17 -8 0z"/>
<path d="M662 3000 c0 -14 2 -19 5 -12 2 6 2 18 0 25 -3 6 -5 1 -5 -13z"/>
<path d="M3193 2926 c18 -29 34 -52 36 -50 5 4 -47 91 -58 99 -5 3 5 -19 22
-49z"/>
<path d="M650 2894 c0 -32 4 -64 8 -71 4 -7 7 17 5 53 -2 83 -13 97 -13 18z"/>
<path d="M3231 2850 c0 -8 4 -24 9 -35 5 -13 9 -14 9 -5 0 8 -4 24 -9 35 -5
13 -9 14 -9 5z"/>
<path d="M676 2795 c-3 -9 -6 -22 -5 -28 0 -7 5 -1 10 12 5 13 8 26 5 28 -2 2
-6 -3 -10 -12z"/>
<path d="M3251 2774 c0 -11 3 -14 6 -6 3 7 2 16 -1 19 -3 4 -6 -2 -5 -13z"/>
<path d="M622 2740 c0 -14 2 -19 5 -12 2 6 2 18 0 25 -3 6 -5 1 -5 -13z"/>
<path d="M3272 2655 c0 -16 2 -22 5 -12 2 9 2 23 0 30 -3 6 -5 -1 -5 -18z"/>
<path d="M3283 2560 c0 -30 2 -43 4 -27 2 15 2 39 0 55 -2 15 -4 2 -4 -28z"/>
<path d="M3293 2440 c0 -36 2 -50 4 -32 2 17 2 47 0 65 -2 17 -4 3 -4 -33z"/>
<path d="M582 2450 c0 -8 4 -26 8 -40 6 -20 8 -21 8 -5 0 11 -3 29 -8 40 -5
12 -8 14 -8 5z"/>
<path d="M682 1960 c0 -14 2 -19 5 -12 2 6 2 18 0 25 -3 6 -5 1 -5 -13z"/>
<path d="M691 1874 c0 -11 3 -14 6 -6 3 7 2 16 -1 19 -3 4 -6 -2 -5 -13z"/>
<path d="M705 1827 c-4 -10 -5 -21 -1 -24 10 -10 18 4 13 24 -4 17 -4 17 -12
0z"/>
<path d="M3273 1750 c0 -36 2 -50 4 -32 2 17 2 47 0 65 -2 17 -4 3 -4 -33z"/>
<path d="M3261 1634 c0 -11 3 -14 6 -6 3 7 2 16 -1 19 -3 4 -6 -2 -5 -13z"/>
<path d="M3252 1575 c0 -16 2 -22 5 -12 2 9 2 23 0 30 -3 6 -5 -1 -5 -18z"/>
<path d="M3272 1474 c-1 -23 -4 -57 -7 -75 l-5 -34 11 33 c5 19 8 53 6 75 l-4
42 -1 -41z"/>
<path d="M3256 1335 c-3 -9 -6 -24 -5 -33 0 -9 5 -4 10 12 9 32 6 48 -5 21z"/>
<path d="M3236 1244 c-4 -14 -5 -28 -3 -31 3 -2 8 8 11 23 4 14 5 28 3 31 -3
2 -8 -8 -11 -23z"/>
<path d="M3175 1070 c-9 -16 -13 -30 -11 -30 3 0 12 14 21 30 9 17 13 30 11
30 -3 0 -12 -13 -21 -30z"/>
<path d="M3114 958 c-9 -18 -24 -44 -32 -58 -14 -24 -13 -24 3 -5 19 23 58 95
50 95 -2 0 -12 -15 -21 -32z"/>
<path d="M2288 283 c7 -3 16 -2 19 1 4 3 -2 6 -13 5 -11 0 -14 -3 -6 -6z"/>
<path d="M2345 270 c11 -5 27 -9 35 -9 9 0 8 4 -5 9 -11 5 -27 9 -35 9 -9 0
-8 -4 5 -9z"/>
<path d="M2460 270 c-21 -7 -21 -8 -5 -9 11 0 27 4 35 9 18 11 5 11 -30 0z"/>
</g>
</svg>
