<?xml version="1.0" standalone="no"?>
<!DOCTYPE svg PUBLIC "-//W3C//DTD SVG 20010904//EN"
 "http://www.w3.org/TR/2001/REC-SVG-20010904/DTD/svg10.dtd">
<svg version="1.0" xmlns="http://www.w3.org/2000/svg"
 width="613.000000pt" height="613.000000pt" viewBox="0 0 613.000000 613.000000"
 preserveAspectRatio="xMidYMid meet">
<metadata>
Created by potrace 1.11, written by Peter Selinger 2001-2013
</metadata>
<g transform="translate(0.000000,613.000000) scale(0.100000,-0.100000)"
fill="#000000" stroke="none">
<path d="M340 6116 c0 -24 15 -26 28 -5 11 16 9 19 -8 19 -11 0 -20 -6 -20
-14z"/>
<path d="M670 6124 c0 -8 32 -33 43 -34 4 0 3 9 -3 20 -10 18 -40 29 -40 14z"/>
<path d="M732 6103 c7 -16 16 -34 22 -41 6 -9 3 -21 -11 -40 -11 -15 -23 -44
-27 -64 -4 -21 -11 -40 -17 -44 -17 -10 -59 5 -59 21 0 9 -9 15 -24 15 -24 0
-36 21 -36 68 0 24 -10 26 -72 16 -29 -5 -38 -11 -38 -26 0 -28 18 -58 35 -58
24 0 45 -42 46 -95 1 -29 4 -38 6 -23 4 25 7 27 24 17 17 -8 19 -16 13 -42 -6
-31 -6 -32 13 -14 30 26 39 21 54 -30 7 -27 15 -52 16 -58 5 -14 -86 -12 -120
3 -15 6 -30 19 -33 27 -4 8 -12 15 -18 15 -7 0 -18 11 -24 25 -7 14 -20 25
-31 25 -10 0 -26 11 -35 25 -23 35 -49 34 -40 -2 4 -16 14 -33 23 -40 9 -6 13
-15 9 -18 -13 -13 -98 -6 -134 11 -19 9 -37 14 -40 11 -8 -8 12 -42 51 -84 32
-34 35 -42 29 -77 -5 -34 -4 -38 11 -33 9 4 21 7 27 7 6 0 6 6 -2 15 -10 12
-9 16 5 21 11 5 21 1 27 -10 7 -13 17 -16 34 -12 21 6 24 3 24 -19 0 -16 4
-24 11 -20 12 8 98 -13 114 -26 5 -5 -1 -9 -14 -9 -22 0 -23 -1 -9 -22 17 -26
80 -41 114 -28 15 6 31 2 54 -12 27 -16 38 -18 58 -8 20 8 28 8 42 -5 9 -8 28
-15 43 -15 23 0 25 -3 23 -32 -2 -18 -1 -25 1 -15 3 11 14 17 33 17 18 0 33 7
39 19 15 27 30 102 20 95 -11 -6 -8 87 3 102 5 8 0 14 -14 19 l-23 8 25 4 c13
3 26 0 28 -5 2 -6 34 -14 71 -18 62 -6 68 -8 63 -27 -6 -23 21 -47 53 -47 20
0 22 -6 29 -92 3 -50 6 -113 6 -140 0 -45 11 -61 25 -38 3 6 24 10 46 10 32 0
39 -3 39 -20 0 -11 -4 -20 -8 -20 -9 0 -10 -83 -2 -110 4 -11 -2 -15 -20 -15
-14 0 -31 -4 -38 -8 -8 -5 -22 -2 -37 7 -25 16 -95 22 -95 8 0 -8 29 -40 75
-82 28 -25 49 -66 40 -80 -7 -12 -45 -19 -45 -9 0 5 -4 9 -10 9 -18 0 -10 -24
15 -49 37 -34 34 -53 -5 -29 -15 10 -24 9 -46 -2 -19 -10 -28 -12 -31 -4 -2 6
-10 19 -17 29 -20 28 -35 10 -29 -37 6 -38 4 -41 -13 -33 -29 13 -77 11 -81
-2 -3 -8 4 -13 17 -13 27 0 70 -28 70 -46 0 -14 -38 -34 -66 -34 -8 0 -14 6
-14 13 0 8 -12 24 -26 38 -14 13 -30 35 -35 48 -7 18 -14 22 -34 17 -14 -4
-25 -2 -25 3 0 5 -9 11 -20 14 -12 3 -20 14 -20 26 0 25 -12 27 -30 6 -19 -23
-43 -19 -35 5 10 31 -19 35 -60 10 -38 -24 -58 -18 -70 21 -4 10 -13 19 -22
19 -12 0 -14 -6 -9 -27 12 -49 12 -68 -2 -65 -10 2 -10 -2 -2 -17 5 -11 15
-23 20 -26 7 -4 6 -14 -1 -27 -15 -28 11 -48 62 -48 21 0 41 -5 44 -10 4 -6
10 -8 15 -5 5 3 12 0 16 -6 9 -15 -53 -67 -86 -71 -14 -2 -24 -9 -23 -15 2 -9
-11 -13 -41 -13 -57 0 -76 -8 -76 -31 0 -10 -4 -19 -8 -19 -11 0 -46 41 -55
63 -6 15 -10 16 -39 4 -24 -10 -32 -20 -31 -36 2 -11 -2 -21 -7 -21 -6 0 -10
6 -10 14 0 7 -16 26 -35 40 -19 15 -35 35 -35 45 0 10 -10 26 -22 34 -20 14
-21 18 -8 26 8 6 11 11 5 11 -16 0 -31 -13 -38 -32 -9 -25 -37 -23 -37 3 0 15
-5 19 -19 14 -21 -6 -46 18 -38 38 3 7 -1 21 -8 31 -11 14 -17 15 -33 7 -17
-9 -24 -6 -44 17 -37 44 -58 32 -58 -35 0 -54 1 -55 18 -40 39 35 70 9 56 -47
-5 -21 -3 -25 10 -20 20 8 38 -33 25 -58 -5 -9 -9 -21 -9 -27 0 -12 43 -10 52
3 11 16 49 14 56 -3 9 -26 36 -47 75 -60 20 -7 37 -15 37 -19 0 -15 -54 -82
-67 -82 -30 0 -51 19 -46 41 5 18 2 20 -23 17 -18 -2 -33 -11 -39 -25 -14 -33
-39 -30 -32 3 3 18 0 27 -12 31 -30 11 -42 25 -32 37 6 6 7 16 3 22 -8 13 -46
34 -61 34 -16 0 -14 -143 2 -159 9 -11 9 -14 0 -18 -7 -3 -13 -21 -13 -42 0
-36 2 -38 28 -35 34 4 82 -16 82 -35 0 -10 9 -12 33 -8 26 4 38 0 55 -18 12
-12 22 -31 22 -40 0 -14 6 -16 30 -12 25 6 32 2 44 -21 17 -32 60 -55 86 -47
10 3 21 1 25 -5 4 -6 16 -8 27 -4 14 4 29 -3 53 -26 l33 -32 7 92 c5 64 11 93
21 97 19 7 18 33 -1 33 -8 0 -15 9 -15 20 0 22 -12 25 -41 10 -17 -9 -19 -7
-19 18 0 15 -9 38 -20 50 -22 23 -26 42 -10 42 6 0 10 6 10 13 0 8 9 22 20 32
18 16 20 16 20 2 0 -9 9 -21 21 -27 16 -9 25 -8 40 6 18 16 19 16 19 -2 0 -10
-6 -31 -14 -45 -12 -23 -12 -29 1 -42 24 -23 34 -95 16 -113 -11 -11 -13 -27
-8 -62 8 -60 21 -84 31 -59 8 21 27 22 44 2 19 -23 -5 -48 -32 -34 -19 10 -20
7 -17 -95 2 -70 -1 -110 -9 -118 -8 -8 -14 -4 -22 17 -6 15 -13 26 -15 23 -8
-8 18 -167 27 -162 4 3 8 16 8 29 0 16 7 25 25 29 31 8 53 51 64 124 l9 57 1
-73 c1 -64 4 -75 20 -79 11 -3 21 -13 24 -24 7 -27 46 -24 103 6 26 14 53 25
59 25 7 0 20 11 29 25 10 15 26 25 39 25 13 0 28 5 33 10 27 27 70 -34 45 -64
-8 -10 -8 -16 4 -26 8 -7 15 -19 15 -28 0 -10 -8 -6 -27 12 -33 33 -46 16 -14
-18 12 -12 21 -28 21 -34 0 -16 -31 -14 -54 3 -11 8 -23 15 -28 15 -14 0 -9
-28 7 -34 8 -3 15 -10 15 -16 0 -5 -7 -10 -15 -10 -24 0 -17 -38 10 -56 14 -9
25 -20 25 -25 0 -5 -11 -11 -25 -15 -28 -7 -33 -22 -10 -30 11 -5 12 -10 3
-24 -8 -12 -8 -29 -1 -58 12 -46 9 -52 -23 -52 -28 0 -104 40 -104 55 0 7 -18
19 -39 27 -28 11 -40 23 -43 39 -2 14 -11 25 -23 28 -33 6 -65 32 -65 53 0 10
-4 16 -10 13 -5 -3 -10 -13 -10 -22 0 -9 -7 -25 -16 -35 -13 -13 -14 -21 -6
-31 9 -10 8 -18 -2 -33 -14 -18 -15 -18 -22 -1 -4 10 -3 33 2 50 11 37 7 87
-6 87 -16 0 -22 -47 -10 -69 9 -18 8 -21 -11 -21 -12 0 -23 8 -26 20 -10 37
-23 20 -23 -30 0 -39 -4 -50 -16 -50 -13 0 -14 8 -7 48 4 26 8 94 8 152 0 103
0 105 -22 102 -15 -2 -23 2 -23 11 0 22 12 28 28 14 11 -8 14 -8 9 0 -4 6 0
32 8 57 17 48 14 66 -10 66 -8 0 -20 10 -26 23 -7 12 -18 27 -24 32 -7 6 -16
23 -19 39 -11 45 -24 13 -18 -41 l5 -45 -32 7 c-28 6 -31 5 -31 -19 0 -29 -3
-31 -32 -15 -34 18 -46 -6 -18 -36 24 -25 63 -32 88 -16 18 11 59 2 66 -14 6
-18 -16 -65 -31 -65 -19 0 -24 -16 -14 -42 12 -31 4 -42 -33 -46 -27 -3 -28
-1 -23 25 8 39 -2 49 -43 49 -29 -1 -36 3 -38 22 -6 43 -48 12 -50 -38 -1 -49
-9 -114 -16 -136 -3 -11 -8 -59 -11 -108 -4 -76 -3 -87 9 -71 9 13 15 15 20 6
9 -14 -12 -43 -25 -35 -5 3 -9 -1 -9 -8 -1 -7 -3 -75 -5 -151 l-5 -138 26 -11
c34 -16 27 -42 -14 -46 -20 -2 -32 -9 -32 -18 0 -8 -9 -14 -19 -14 -11 0 -21
-6 -24 -12 -3 -9 -10 -7 -21 7 -15 20 -15 20 -16 -2 0 -14 -6 -23 -15 -23 -8
0 -15 9 -15 20 0 11 -7 20 -15 20 -11 0 -14 9 -10 34 2 22 -1 39 -11 46 -12
11 -14 -196 -14 -1614 l0 -1626 3065 0 3065 0 0 90 0 89 -34 -20 c-18 -10 -58
-26 -87 -34 -30 -7 -85 -30 -123 -50 -38 -19 -71 -34 -73 -31 -2 2 7 22 21 44
14 22 28 53 31 69 4 15 10 37 14 48 21 52 33 129 37 225 2 58 5 116 6 130 3
23 0 25 -29 22 -24 -1 -33 2 -33 13 0 9 7 18 16 22 11 4 13 13 8 36 -4 20 -2
32 7 38 10 6 14 36 14 114 0 91 -2 105 -16 105 -34 0 -45 47 -29 125 6 28 -1
85 -12 97 -7 7 -14 22 -15 33 -5 45 -32 148 -42 158 -6 6 -11 21 -11 33 0 17
-5 20 -23 17 -22 -4 -26 2 -56 99 -18 56 -46 121 -62 142 -32 44 -38 76 -13
76 9 0 12 5 8 12 -4 7 -9 22 -10 33 -3 26 -25 76 -59 130 -13 22 -24 48 -25
59 -1 44 -144 233 -192 253 -45 19 -68 17 -68 -7 0 -28 -26 -77 -61 -114 -16
-17 -29 -34 -29 -38 0 -5 -11 -8 -24 -8 -26 0 -56 44 -56 82 0 11 -6 32 -14
46 -7 15 -21 45 -31 67 -10 22 -20 34 -22 28 -3 -7 -13 -13 -24 -13 -21 0 -25
-21 -9 -50 8 -15 5 -21 -18 -32 -24 -12 -29 -11 -48 8 -11 11 -19 25 -17 31 5
15 -36 58 -46 47 -12 -13 -48 -165 -82 -344 -20 -109 -32 -102 -43 27 -4 49
-2 64 10 71 24 14 45 128 47 257 2 106 -1 125 -21 168 -19 41 -27 47 -53 47
-19 0 -29 -5 -27 -12 1 -7 -8 -34 -21 -60 -19 -41 -22 -59 -18 -120 3 -40 8
-89 12 -108 l7 -35 -40 45 c-23 26 -49 71 -62 106 -15 45 -37 78 -76 119 -30
31 -62 67 -70 81 -9 13 -22 24 -28 24 -17 0 -168 86 -177 101 -4 7 -23 18 -44
24 l-36 13 6 -29 c9 -38 0 -37 -21 4 -9 17 -37 51 -61 75 -48 46 -79 55 -70
22 3 -13 0 -20 -9 -20 -18 0 -18 -9 1 -53 16 -40 20 -107 6 -107 -5 0 -11 7
-15 15 -5 15 -27 22 -25 7 1 -4 1 -15 0 -25 -1 -26 -21 -10 -21 16 0 19 -19
70 -77 205 -3 6 -9 12 -13 12 -5 0 3 -39 16 -87 26 -93 60 -286 68 -390 7 -97
-28 -205 -86 -260 -68 -65 -182 -64 -254 3 -21 19 -43 34 -50 34 -6 0 -17 7
-24 15 -7 9 -21 13 -31 10 -26 -9 -24 -1 11 33 24 25 30 39 30 75 0 27 6 49
15 57 8 7 15 21 15 32 0 10 6 21 14 24 18 7 27 29 20 49 -5 11 -9 12 -25 2
-16 -10 -21 -9 -29 2 -6 12 -12 12 -23 3 -16 -14 -27 -6 -27 20 0 10 6 18 14
18 21 0 25 11 14 40 -8 22 -10 23 -19 7 -12 -21 -29 -22 -29 -1 0 11 -5 14
-16 10 -9 -3 -19 -6 -24 -6 -5 0 -16 -7 -25 -16 -25 -25 -31 -7 -10 31 15 29
16 40 7 60 -8 17 -8 25 -1 25 6 0 9 15 7 33 -2 26 1 33 18 35 17 2 24 14 34
63 7 33 10 62 7 66 -4 3 -2 12 4 19 7 9 7 25 -1 56 -7 25 -9 66 -5 101 5 45 3
63 -8 76 -8 9 -18 34 -22 55 -3 22 -15 51 -26 64 -10 14 -19 35 -19 48 0 14
-6 24 -14 24 -26 0 -27 43 -2 91 14 28 22 59 21 80 -3 33 1 37 47 63 96 54
126 101 173 270 11 39 26 67 47 86 28 26 30 31 20 58 -6 17 -8 33 -5 36 11 11
2 121 -10 133 -7 7 -59 17 -118 22 -122 12 -130 14 -186 57 -55 42 -125 68
-161 61 -16 -3 -34 -1 -39 4 -6 6 -46 17 -89 24 -71 13 -90 13 -182 -3 -93
-15 -107 -20 -140 -51 -82 -77 -101 -86 -176 -84 -45 1 -74 7 -85 17 -10 9
-22 16 -27 16 -5 0 -36 14 -69 31 -78 39 -177 43 -243 9 -23 -12 -49 -19 -58
-16 -9 4 -22 2 -28 -2 -6 -5 -35 -12 -65 -16 -48 -6 -59 -13 -102 -58 -46 -48
-50 -50 -89 -45 -53 7 -56 11 -36 42 9 14 14 29 12 34 -3 5 0 29 8 53 12 42
12 94 -1 128 -3 8 -5 27 -4 42 1 15 -3 36 -9 48 -12 22 -24 83 -21 110 0 8 3
38 5 65 5 59 32 119 51 111 15 -6 36 16 62 64 41 78 156 190 195 190 5 0 27
12 47 28 62 47 111 64 196 69 44 2 114 6 155 9 116 7 120 7 139 -10 15 -14 23
-15 47 -5 17 7 113 15 224 18 163 5 200 9 223 24 14 9 35 17 45 17 10 0 27 9
37 20 10 11 23 19 29 17 6 -3 18 2 26 9 9 7 41 16 72 20 60 7 122 -11 230 -69
27 -14 50 -21 54 -16 3 5 0 9 -5 9 -26 0 -8 37 28 57 34 20 41 20 57 8 11 -8
27 -15 36 -15 10 0 22 -10 29 -21 16 -31 61 -68 82 -69 23 0 22 13 -4 36 -12
10 -31 39 -43 64 -18 39 -24 45 -49 42 -22 -3 -37 6 -70 40 -49 52 -106 93
-114 84 -4 -3 -17 4 -30 16 -18 17 -23 32 -23 73 0 29 -6 59 -15 71 -13 18
-14 15 -15 -28 0 -53 -6 -57 -43 -28 -14 11 -34 20 -45 20 -12 0 -24 5 -27 11
-4 6 -13 8 -21 5 -8 -3 -14 0 -14 7 0 7 -14 28 -31 46 -30 33 -32 47 -18 101
2 9 -4 16 -18 18 -17 3 -22 -2 -25 -25 -2 -19 -12 -32 -31 -41 -16 -8 -31 -12
-33 -9 -3 2 -9 33 -15 68 -5 35 -16 69 -23 74 -17 13 -31 105 -17 105 6 0 11
4 11 10 0 5 -6 7 -14 4 -9 -3 -21 10 -35 40 -29 60 -59 96 -79 97 -9 1 -1 5
18 9 32 8 38 6 74 -31 22 -21 47 -39 56 -39 9 0 25 -9 35 -20 10 -11 22 -17
26 -14 5 3 15 2 22 -3 6 -4 21 -9 32 -10 11 -2 24 -8 29 -13 6 -6 18 -10 27
-10 10 0 19 -6 22 -12 2 -8 21 -13 43 -13 34 0 39 -3 39 -24 0 -16 8 -27 25
-33 14 -5 34 -17 45 -27 11 -10 29 -22 40 -25 17 -5 79 -79 105 -125 14 -24
40 -4 41 31 2 29 3 30 6 7 2 -16 12 -29 24 -32 14 -4 19 -14 19 -40 0 -20 5
-39 11 -43 8 -4 10 -43 6 -124 -3 -65 -3 -120 0 -123 3 -3 14 -1 24 6 30 18
44 -2 48 -71 1 -7 20 -21 44 -31 24 -10 48 -30 57 -45 19 -37 45 -50 68 -35
20 13 72 5 72 -11 0 -5 -12 -10 -26 -12 -17 -2 -30 -11 -35 -26 -7 -19 -5 -22
9 -20 12 2 18 -5 20 -27 4 -51 24 -105 39 -105 10 0 12 -6 8 -20 -4 -11 0 -33
8 -49 10 -20 11 -33 4 -40 -7 -7 -2 -13 18 -21 26 -10 27 -12 11 -28 -9 -11
-12 -22 -7 -28 14 -14 18 -107 4 -111 -6 -2 -14 5 -18 17 -14 43 -29 1 -40
-105 -23 -236 -29 -286 -36 -291 -5 -3 -9 -14 -9 -25 0 -11 -7 -30 -15 -42
-24 -37 -9 -64 46 -82 56 -19 59 -22 80 -95 l16 -55 59 -5 c66 -6 89 -16 122
-55 33 -38 59 -30 89 28 25 46 26 47 61 41 19 -4 45 -18 57 -32 12 -14 37 -30
56 -36 20 -6 42 -24 54 -43 12 -19 29 -32 40 -33 12 0 27 -6 33 -12 9 -9 15
-10 20 -2 4 7 15 8 30 3 23 -9 29 -24 12 -34 -5 -3 -10 1 -10 9 0 9 -7 16 -15
16 -8 0 -15 -9 -15 -20 0 -39 -32 -101 -61 -115 -33 -18 -86 -20 -91 -4 -2 7
-17 8 -42 4 -42 -8 -108 -68 -104 -94 1 -9 -1 -22 -5 -28 -10 -16 0 -33 18
-33 8 0 32 -7 54 -16 l40 -16 -26 -28 c-20 -23 -30 -27 -44 -20 -9 6 -25 7
-33 4 -11 -4 -16 0 -17 12 0 11 -2 53 -4 94 -4 82 -13 148 -21 162 -3 4 -20
-20 -37 -54 -37 -72 -75 -102 -142 -112 -37 -6 -52 -3 -79 13 -18 12 -38 21
-44 21 -5 0 -13 -39 -17 -89 -7 -84 -9 -91 -46 -136 -21 -26 -39 -51 -39 -55
0 -4 -25 -24 -56 -44 l-56 -37 4 -58 c2 -38 -2 -64 -10 -74 -34 -40 7 -73 161
-132 179 -68 259 -79 310 -43 17 12 27 17 23 10 -12 -20 23 -26 43 -8 22 20
31 20 31 0 0 -8 13 -20 30 -25 26 -10 47 -41 42 -61 -1 -5 9 -8 23 -8 14 0 25
3 25 8 0 4 13 14 29 24 28 15 29 15 34 -2 3 -11 -1 -21 -9 -24 -21 -8 -17 -26
6 -26 12 0 33 -6 48 -14 15 -8 52 -21 82 -29 30 -9 86 -27 123 -41 l69 -26 11
30 c14 36 40 36 45 0 4 -30 35 -65 75 -85 34 -17 47 -12 47 16 0 10 6 29 13
40 10 17 10 23 0 26 -20 7 -16 68 5 86 24 22 32 21 32 -3 0 -10 -8 -23 -17
-29 -13 -7 -15 -13 -7 -21 14 -14 62 3 70 25 10 24 24 17 24 -11 0 -14 -7 -66
-16 -116 -21 -110 -17 -116 61 -99 31 7 58 18 61 24 2 7 5 47 7 89 2 55 8 82
20 96 9 10 17 23 17 29 0 6 13 25 29 42 16 17 31 41 35 55 4 17 16 26 45 33
52 14 63 5 60 -45 -2 -23 0 -44 4 -48 4 -4 7 -17 8 -28 0 -15 4 -11 16 15 15
33 20 36 56 35 26 0 43 5 52 17 6 9 19 17 27 17 20 0 138 -112 138 -130 0 -25
32 -100 41 -95 4 3 11 -11 14 -32 4 -21 15 -67 26 -103 20 -69 16 -82 -23 -85
-13 -1 -30 -4 -38 -6 -11 -3 -15 4 -15 23 1 16 -3 28 -7 28 -4 0 -8 -13 -8
-28 0 -16 -7 -37 -15 -48 -8 -10 -15 -28 -15 -40 0 -28 -31 -54 -63 -54 -19 0
-27 5 -27 18 0 20 -26 60 -33 52 -2 -3 -8 -31 -11 -63 -6 -46 -5 -57 7 -57 8
0 20 7 27 15 7 8 21 15 32 15 15 0 18 -5 13 -20 -5 -16 -2 -20 18 -20 18 0 23
-5 23 -21 -1 -12 5 -24 12 -26 9 -4 12 13 12 61 0 37 4 66 10 66 6 0 10 -18
10 -40 0 -32 4 -40 19 -40 23 0 42 -22 33 -36 -4 -6 -20 -10 -37 -10 -25 1
-30 -3 -35 -29 -4 -16 -11 -29 -18 -27 -7 1 -12 -4 -12 -12 0 -9 7 -12 20 -9
16 4 20 0 20 -21 0 -16 -5 -26 -15 -26 -8 0 -15 7 -15 15 0 17 -9 19 -29 6 -9
-6 -12 -19 -8 -37 3 -16 1 -36 -3 -45 -9 -16 13 -53 53 -88 9 -8 17 -22 17
-31 0 -8 20 -55 45 -104 25 -48 45 -97 45 -107 0 -10 16 -54 35 -98 19 -43 35
-82 35 -86 0 -3 8 -25 19 -48 10 -23 22 -61 26 -84 9 -56 27 -71 55 -45 16 15
21 31 20 64 -1 23 -1 66 0 93 l3 50 7 -40 c4 -22 8 408 9 956 l1 997 -31 11
c-21 7 -29 16 -26 25 3 8 -1 17 -9 20 -8 3 -14 12 -14 21 0 8 -3 15 -6 15 -15
0 -54 -27 -93 -67 -32 -32 -50 -43 -64 -39 -12 3 -25 -1 -31 -10 -6 -8 -28
-16 -47 -17 -45 -3 -69 -22 -64 -48 5 -24 -14 -59 -32 -59 -7 0 -16 -7 -21
-16 -8 -14 -10 -13 -16 9 -8 32 1 57 27 78 20 17 20 17 -2 28 -12 7 -26 9 -31
6 -5 -3 -11 -1 -14 4 -4 5 8 13 26 16 18 4 45 14 60 21 31 16 47 53 28 64 -9
6 -7 11 9 19 12 7 21 21 21 35 0 18 8 27 31 35 17 6 28 15 24 20 -4 7 -15 6
-31 -1 -16 -8 -28 -8 -35 -1 -14 14 -2 37 31 56 17 10 27 23 24 31 -3 7 3 16
13 18 12 3 24 22 32 48 7 23 15 48 17 55 3 7 -5 14 -21 17 -26 5 -43 -6 -25
-17 15 -9 12 -25 -5 -25 -9 0 -20 -11 -25 -25 -5 -14 -14 -25 -19 -25 -5 0
-11 -10 -13 -21 -5 -36 -32 -46 -73 -26 -36 17 -36 17 -30 -2 8 -26 -15 -61
-40 -62 -19 0 -19 -1 3 -11 26 -13 26 -15 7 -61 -8 -20 -24 -39 -36 -42 -16
-5 -20 -14 -18 -39 2 -21 -3 -39 -13 -49 -9 -10 -14 -25 -11 -37 5 -17 1 -20
-27 -20 -25 0 -31 -4 -26 -15 3 -8 9 -22 12 -30 9 -21 -19 -19 -39 3 -10 10
-17 24 -17 30 0 6 -9 14 -20 17 -26 8 -25 21 1 35 17 10 18 14 8 27 -7 8 -12
28 -11 44 3 37 -16 38 -75 3 -46 -27 -70 -25 -54 5 5 9 7 35 4 57 -6 47 14
157 28 149 5 -4 9 -15 9 -26 0 -11 5 -17 10 -14 6 4 8 22 4 43 -8 45 -7 44
-28 36 -9 -3 -16 -17 -16 -32 0 -14 -8 -34 -17 -44 -26 -29 -44 -88 -32 -109
5 -10 9 -28 9 -40 0 -16 -5 -20 -20 -16 -11 3 -20 1 -20 -4 0 -20 -2 -25 -16
-47 -9 -13 -13 -30 -10 -37 3 -10 -6 -16 -29 -21 -39 -7 -39 -7 -26 -32 5 -9
12 -25 15 -36 4 -12 13 -17 26 -13 11 3 20 2 20 -1 0 -7 31 -22 73 -36 9 -3
17 -16 17 -28 1 -20 2 -21 13 -7 17 22 47 32 47 15 0 -10 17 -13 63 -13 60 1
64 2 77 30 15 34 39 46 54 26 6 -9 20 -19 31 -23 20 -8 20 -8 -1 -16 -17 -7
-20 -14 -16 -36 4 -22 2 -26 -11 -21 -9 3 -18 0 -21 -9 -3 -8 -15 -14 -26 -14
-11 0 -20 -4 -20 -9 0 -16 -94 -9 -107 8 -9 13 -14 14 -24 4 -8 -8 -39 -13
-75 -13 -67 0 -79 -10 -68 -56 7 -29 0 -29 -76 -9 -34 9 -56 11 -58 5 -7 -20
-43 -10 -52 15 -7 19 -17 25 -40 25 -24 0 -30 4 -30 21 0 18 5 20 43 17 37 -3
42 0 45 19 2 12 21 40 42 62 35 36 38 43 33 81 l-6 41 -88 -7 c-60 -4 -89 -3
-89 4 0 16 68 35 101 28 22 -4 29 -2 29 9 0 8 -7 15 -15 15 -8 0 -15 7 -15 15
0 20 49 10 70 -14 9 -10 29 -21 45 -25 28 -7 29 -7 13 11 -13 14 -16 32 -13
76 5 62 0 67 -45 41 -32 -20 -63 -12 -58 13 2 13 15 19 46 21 28 2 42 8 42 18
0 8 9 14 19 14 20 0 31 18 31 51 0 10 4 19 9 19 15 0 22 62 9 78 -8 10 -8 13
-2 9 21 -12 66 71 74 137 11 75 23 115 45 150 10 15 15 29 11 33 -3 4 0 13 8
22 8 9 19 39 25 66 12 59 40 153 74 250 14 38 23 73 21 77 -9 14 -44 8 -44 -7
0 -8 -4 -15 -9 -15 -15 0 -32 27 -25 43 4 11 -1 16 -16 19 -48 7 -62 75 -24
123 15 20 15 20 30 1 7 -11 23 -20 34 -21 26 -2 60 -34 60 -57 0 -10 5 -18 11
-18 8 0 10 12 6 34 -3 19 0 39 6 45 6 6 12 27 13 46 1 28 -3 35 -25 40 -24 7
-24 8 -6 15 13 4 22 19 25 41 4 31 8 34 39 36 19 1 37 5 40 10 8 12 39 24 75
29 15 2 34 8 41 14 18 15 7 48 -17 56 -11 3 -17 12 -14 20 3 8 -1 14 -9 14 -8
0 -15 -7 -15 -16 0 -24 -33 -12 -40 14 -5 23 -5 22 -23 -8 -10 -17 -22 -28
-27 -25 -4 2 -10 -5 -13 -16 -4 -15 -11 -19 -25 -15 -14 5 -21 1 -25 -14 -4
-14 -13 -20 -35 -20 -17 0 -33 -4 -36 -9 -3 -5 -23 -7 -45 -4 -40 5 -66 -12
-41 -27 9 -6 7 -11 -8 -19 -12 -6 -19 -17 -16 -25 3 -7 -3 -21 -12 -31 -10 -9
-18 -27 -19 -39 -3 -44 -16 -143 -27 -204 -8 -50 -16 -66 -38 -82 -19 -14 -31
-17 -35 -10 -4 6 3 70 16 141 12 71 19 132 16 135 -3 3 -14 1 -25 -5 -29 -16
-33 6 -11 51 24 48 24 48 -9 48 -35 0 -61 27 -67 68 -2 17 -11 42 -19 54 -24
33 -12 204 16 234 13 14 16 24 9 29 -16 9 -13 25 4 25 9 0 19 -10 24 -23 13
-35 172 -157 204 -157 1 0 0 27 -1 60 -3 42 -8 60 -17 60 -33 0 -38 72 -6 101
11 11 23 19 26 19 3 0 18 11 33 25 31 29 92 35 92 10 0 -15 20 -19 68 -15 12
1 22 -3 22 -9 0 -6 -7 -11 -15 -11 -18 0 -18 -2 -4 -34 9 -19 8 -31 -5 -57 -9
-17 -16 -34 -16 -36 0 -6 60 7 90 20 14 6 34 11 45 11 21 1 22 9 9 74 -7 34 5
42 26 17 7 -8 16 -15 21 -15 5 0 9 7 9 15 0 19 9 19 32 -2 21 -19 37 -10 19
11 -16 19 16 31 36 14 13 -10 19 -8 34 11 15 18 19 40 19 101 0 43 3 92 6 109
4 20 3 31 -5 31 -6 0 -11 -7 -11 -15 0 -8 -6 -15 -13 -15 -9 0 -12 10 -9 30 4
30 3 31 -24 24 -16 -4 -38 -15 -50 -25 -30 -28 -41 -23 -47 19 -3 20 -8 47
-12 60 -7 21 -5 22 26 20 32 -3 34 -1 37 30 4 36 -7 42 -26 12 -14 -23 -39
-25 -64 -6 -20 15 -14 26 14 26 25 0 68 29 68 46 0 16 -12 18 -26 4 -5 -5 -19
-7 -30 -4 -16 4 -20 12 -17 29 3 12 0 26 -6 29 -16 10 -13 43 4 50 8 3 27 1
41 -4 25 -10 69 -5 89 10 6 4 23 10 39 14 44 11 84 45 79 67 -7 24 -11 24 -68
-1 l-46 -20 7 23 c3 12 13 29 21 38 12 15 11 20 -10 43 -13 14 -33 26 -43 27
-25 1 21 17 54 18 18 1 22 -4 22 -32 0 -28 5 -35 33 -45 40 -15 77 -16 77 -2
0 5 13 7 29 4 36 -8 46 8 26 40 -9 13 -15 32 -13 42 4 27 -26 29 -75 5 -51
-25 -57 -25 -57 -8 0 19 57 59 108 77 47 16 56 36 15 33 -32 -3 -54 13 -46 33
3 8 0 14 -6 14 -16 0 -70 50 -76 71 -5 15 -16 19 -51 19 -43 0 -44 0 -50 -40
-7 -46 -18 -57 -39 -40 -10 8 -18 8 -34 -1 -27 -18 -63 2 -84 47 -15 30 -21
34 -56 34 -22 0 -41 -5 -44 -12 -3 -10 -9 -10 -26 0 -15 9 -91 12 -280 12
-292 0 -264 9 -277 -83 -3 -27 -13 -51 -20 -54 -20 -8 -45 16 -43 41 1 11 1
38 1 59 l-2 37 -1880 0 c-1726 0 -1881 -1 -1887 -16 -3 -9 5 -50 18 -90 22
-69 39 -88 54 -64 3 6 15 10 25 10 11 0 27 12 37 28 25 41 43 52 85 52 28 0
41 -6 53 -23 8 -13 26 -29 40 -35 14 -7 25 -20 25 -31 0 -13 8 -21 23 -23 17
-2 22 -9 22 -35 0 -40 11 -50 36 -35 17 11 21 9 29 -14 14 -35 8 -40 -47 -39
-35 0 -47 4 -45 14 2 10 -3 12 -20 6 -48 -15 -76 -17 -83 -5 -4 7 -2 16 5 20
8 5 1 16 -24 36 -41 33 -44 48 -16 84 40 52 15 54 -52 5 -53 -39 -62 -60 -23
-53 22 5 25 2 25 -21 0 -14 -13 -51 -28 -81 -25 -48 -32 -55 -55 -52 -23 2
-27 -1 -28 -25 -1 -15 -1 -32 0 -36 1 -5 -11 -6 -26 -3 -15 4 -38 8 -50 10
-12 3 -31 9 -42 15 -11 6 -35 11 -54 11 -26 0 -36 -5 -40 -20 -7 -28 -45 -26
-58 3 -5 12 -16 33 -24 47 -17 29 -19 66 -5 75 6 4 8 11 4 16 -3 5 -10 7 -15
3 -11 -7 -49 23 -49 39 0 5 11 6 25 3 15 -4 25 -2 25 4 0 10 16 8 58 -8 7 -2
12 2 10 9 -3 16 45 14 50 -2 6 -16 22 1 22 24 0 13 6 31 13 42 18 25 29 85 17
85 -5 0 2 11 16 25 14 14 31 25 39 25 8 0 15 5 15 10 0 12 -57 13 -64 1 -3 -4
-24 -3 -46 3 -34 8 -43 8 -51 -4 -8 -11 -12 -12 -16 -2 -7 18 -44 16 -37 -3 7
-18 -12 -20 -20 -2 -3 6 -5 -6 -3 -27 l2 -39 -44 0 c-37 0 -48 5 -68 29 -12
16 -23 35 -23 42 0 6 -7 12 -15 12 -12 0 -13 -5 -3 -27z m4058 3 c0 -3 -4 -8
-10 -11 -5 -3 -10 -1 -10 4 0 6 5 11 10 11 6 0 10 -2 10 -4z m1096 -72 c-10
-26 -26 -14 -26 20 0 40 23 55 28 19 2 -14 1 -31 -2 -39z m-2256 -5 c0 -5 -4
-9 -10 -9 -5 0 -10 7 -10 16 0 8 5 12 10 9 6 -3 10 -10 10 -16z m1675 -99 c3
-5 1 -10 -4 -10 -6 0 -11 5 -11 10 0 6 2 10 4 10 3 0 8 -4 11 -10z m118 4 c10
-10 -12 -44 -28 -44 -15 0 -21 31 -8 43 8 9 28 9 36 1z m-473 -50 c0 -38 2
-44 14 -35 7 6 24 10 37 9 20 -3 25 2 27 25 2 16 8 26 15 24 7 -2 11 -11 9
-21 -3 -18 24 -22 30 -4 3 9 14 7 41 -6 38 -17 41 -36 7 -36 -10 0 -22 -5 -26
-11 -9 -15 -109 -59 -134 -59 -12 0 -20 7 -20 16 0 13 -3 14 -13 5 -8 -6 -17
-8 -20 -4 -4 3 -7 -3 -7 -14 0 -11 -6 -26 -14 -32 -11 -10 -16 -8 -21 8 -8 27
4 68 22 75 11 5 13 15 8 46 -8 45 -2 60 26 60 16 0 19 -7 19 -46z m710 -25 c0
-5 -11 -9 -25 -9 -27 0 -32 9 -13 28 12 12 38 -1 38 -19z m-4316 6 c3 -8 1
-15 -3 -15 -5 0 -11 7 -15 15 -3 8 -1 15 3 15 5 0 11 -7 15 -15z m3900 7 c9
-14 -8 -29 -41 -35 -37 -7 -38 -5 -21 23 13 20 52 27 62 12z m772 -17 c1 -8
-2 -17 -7 -21 -5 -3 -9 7 -9 22 0 27 12 26 16 -1z m-2286 1 c0 -17 -14 -29
-23 -20 -8 8 3 34 14 34 5 0 9 -6 9 -14z m-2893 -2 c-3 -3 -12 -4 -19 -1 -8 3
-5 6 6 6 11 1 17 -2 13 -5z m833 -19 c0 -16 -25 -55 -36 -55 -7 0 -18 -9 -24
-20 -6 -11 -17 -20 -25 -20 -19 0 -19 14 0 30 8 7 15 21 15 32 0 10 10 23 23
28 24 10 47 12 47 5z m2900 -31 c0 -9 10 -14 29 -14 36 0 48 -15 29 -37 -12
-15 -9 -16 25 -10 40 6 44 2 22 -27 -14 -19 -15 -19 -35 -1 -16 14 -22 15 -35
5 -8 -7 -15 -19 -15 -26 0 -16 -65 -20 -75 -4 -3 6 -21 10 -39 10 -43 0 -47 5
-28 43 9 18 16 39 17 47 0 9 14 17 38 21 20 3 40 9 44 12 9 9 23 -2 23 -19z
m-796 -3 c3 -5 -1 -11 -9 -15 -9 -3 -15 0 -15 9 0 16 16 20 24 6z m-449 -51
c3 -5 -1 -10 -10 -10 -9 0 -13 5 -10 10 3 6 8 10 10 10 2 0 7 -4 10 -10z m55
0 c0 -5 -4 -10 -10 -10 -5 0 -10 5 -10 10 0 6 5 10 10 10 6 0 10 -4 10 -10z
m406 -57 c-12 -13 -34 26 -28 49 5 20 7 19 20 -10 9 -17 12 -35 8 -39z m-3055
17 c5 0 9 -7 9 -15 0 -8 -3 -15 -7 -15 -11 0 -32 48 -24 55 3 4 7 0 9 -9 2 -9
8 -16 13 -16z m896 -46 l14 -22 -45 15 c-25 9 -43 20 -40 25 10 16 56 4 71
-18z m3281 -38 c2 -36 0 -47 -10 -44 -14 5 -29 64 -21 85 11 28 28 5 31 -41z
m642 24 c0 -5 -4 -10 -10 -10 -5 0 -10 5 -10 10 0 6 5 10 10 10 6 0 10 -4 10
-10z m-192 -41 l-3 -24 -13 23 c-7 12 -10 27 -6 33 10 17 26 -6 22 -32z m-528
10 c0 -5 -4 -9 -10 -9 -5 0 -10 7 -10 16 0 8 5 12 10 9 6 -3 10 -10 10 -16z
m-3155 -19 c25 -48 18 -70 -9 -25 -20 35 -24 55 -11 55 3 0 11 -13 20 -30z
m3916 -23 c-13 -13 -26 -3 -16 12 3 6 11 8 17 5 6 -4 6 -10 -1 -17z m-211 -18
c0 -11 -4 -17 -10 -14 -5 3 -10 13 -10 21 0 8 5 14 10 14 6 0 10 -9 10 -21z
m-490 -48 c0 -11 -4 -23 -10 -26 -6 -4 -10 5 -10 19 0 14 5 26 10 26 6 0 10
-9 10 -19z m-3190 -11 c0 -5 -5 -10 -11 -10 -5 0 -7 5 -4 10 3 6 8 10 11 10 2
0 4 -4 4 -10z m1220 -6 c0 -8 -4 -12 -10 -9 -5 3 -10 10 -10 16 0 5 5 9 10 9
6 0 10 -7 10 -16z m2447 -16 c-3 -7 -5 -2 -5 12 0 14 2 19 5 13 2 -7 2 -19 0
-25z m-3973 6 c8 -21 6 -162 -3 -194 -11 -41 -37 -37 -45 7 -9 59 -7 162 4
184 13 23 36 25 44 3z m278 -61 c12 -54 11 -52 4 -146 -5 -70 -37 -154 -62
-164 -8 -3 -22 -21 -31 -40 -14 -30 -17 -32 -26 -18 -13 24 -2 97 22 141 11
21 23 58 26 83 5 40 29 148 41 190 7 22 16 6 26 -46z m4005 -40 c-3 -10 -5 -4
-5 12 0 17 2 24 5 18 2 -7 2 -21 0 -30z m54 -116 c-8 -8 -11 -7 -11 4 0 9 3
19 7 23 4 4 9 2 11 -4 3 -7 -1 -17 -7 -23z m129 9 c0 -8 -4 -18 -10 -21 -5 -3
-10 3 -10 14 0 12 5 21 10 21 6 0 10 -6 10 -14z m-290 -70 c-6 -6 -10 -17 -10
-26 0 -9 -10 -25 -21 -36 -22 -19 -22 -19 -14 6 16 55 38 92 46 78 5 -7 4 -17
-1 -22z m-93 -28 c-3 -7 -5 -2 -5 12 0 14 2 19 5 13 2 -7 2 -19 0 -25z m266 7
c32 -3 47 -1 47 7 0 6 3 9 6 6 3 -3 0 -15 -7 -26 -10 -16 -20 -19 -53 -15 -57
7 -106 23 -106 35 0 6 13 8 33 4 19 -3 55 -8 80 -11z m-661 -47 c-15 -15 -21
4 -9 32 l10 25 5 -24 c2 -13 -1 -28 -6 -33z m788 44 c0 -13 -12 -22 -22 -16
-10 6 -1 24 13 24 5 0 9 -4 9 -8z m-182 -77 c-3 -3 -9 2 -12 12 -6 14 -5 15 5
6 7 -7 10 -15 7 -18z m-68 -35 c0 -5 -4 -10 -10 -10 -5 0 -10 5 -10 10 0 6 5
10 10 10 6 0 10 -4 10 -10z m-3997 -70 c-11 -8 -27 -36 -36 -60 -20 -53 -47
-180 -47 -219 0 -16 -9 -57 -20 -92 -22 -68 -22 -168 0 -209 14 -26 3 -109
-18 -133 -12 -14 -13 -22 -4 -43 7 -13 12 -42 12 -63 0 -23 8 -48 20 -64 11
-14 20 -28 20 -32 0 -4 8 -18 19 -31 14 -18 17 -34 13 -71 -2 -27 -9 -56 -14
-65 -7 -15 -4 -18 22 -18 20 0 30 5 30 15 0 8 3 15 8 15 4 0 7 -54 7 -120 0
-115 -4 -136 -22 -107 -11 18 -54 29 -69 17 -8 -8 -7 -26 6 -72 14 -52 15 -68
5 -93 -7 -16 -18 -65 -26 -107 -7 -43 -16 -78 -19 -78 -15 0 -20 519 -7 710 2
36 -1 59 -10 68 -7 7 -13 27 -13 44 0 17 -7 39 -15 48 -15 16 -18 107 -12 330
2 58 0 65 -17 65 -11 0 -21 6 -24 14 -6 17 16 83 45 140 13 24 28 62 34 84 6
22 27 61 48 86 20 25 43 58 50 73 18 36 45 41 49 9 2 -16 -3 -31 -15 -41z
m1955 52 c2 -7 -3 -12 -12 -12 -9 0 -16 7 -16 16 0 17 22 14 28 -4z m1192 3
c0 -7 8 -18 17 -24 16 -8 16 -12 3 -36 -8 -15 -24 -31 -36 -35 -12 -5 -24 -14
-26 -21 -2 -7 -9 -9 -17 -5 -9 6 -10 11 -2 19 17 17 13 26 -8 20 -13 -3 -25 5
-40 31 -28 44 -21 57 30 53 22 -2 42 0 45 5 9 14 34 9 34 -7z m-3220 -60 c-7
-8 -18 -15 -24 -15 -8 0 -8 3 0 8 6 4 14 16 18 27 6 13 10 16 13 7 3 -7 -1
-19 -7 -27z m3076 10 c8 -8 24 -21 36 -29 13 -9 18 -21 14 -31 -8 -23 -48 -15
-61 11 -6 12 -16 28 -23 36 -22 27 9 38 34 13z m367 -19 c9 -19 25 -37 36 -41
28 -8 26 -18 -6 -53 -85 -89 -86 -90 -74 -124 13 -38 2 -53 -25 -34 -15 12
-17 17 -6 27 15 16 16 30 0 27 -6 -2 -14 6 -16 17 -2 11 -7 24 -12 28 -10 12
-60 -3 -60 -17 0 -7 -16 -31 -36 -55 -40 -46 -52 -44 -74 10 -11 27 -16 29
-46 23 -25 -5 -35 -2 -40 9 -6 18 34 63 53 59 6 -1 18 7 26 19 24 34 40 14 33
-42 -4 -31 -3 -50 5 -55 15 -9 29 14 29 48 0 19 4 26 14 22 8 -3 17 -1 21 5 3
6 -1 11 -11 11 -17 0 -11 14 7 16 5 1 14 2 19 3 6 0 10 8 10 16 0 10 10 15 31
15 37 0 30 16 -16 36 -26 10 -32 18 -28 34 4 15 14 20 37 20 18 0 38 -6 45
-12 11 -11 15 -10 24 5 18 27 42 20 60 -17z m-548 -33 c6 -12 23 -34 38 -49
15 -15 28 -36 28 -48 1 -15 3 -12 8 9 7 30 7 30 19 7 12 -21 15 -21 34 -8 16
11 25 13 35 4 27 -22 14 -47 -41 -78 -29 -17 -61 -39 -71 -50 -26 -29 -42 -25
-56 15 -7 19 -19 35 -26 35 -7 0 -13 8 -13 17 0 13 -3 14 -12 5 -16 -16 -38
-15 -38 1 0 8 -17 22 -37 33 -48 25 -56 60 -19 74 14 5 26 14 26 20 0 5 7 10
15 10 9 0 18 7 22 16 9 24 75 15 88 -13z m-3124 -66 c-10 -9 -11 -8 -5 6 3 10
9 15 12 12 3 -3 0 -11 -7 -18z m-28 -32 c27 -11 21 -42 -10 -50 -19 -4 -29 -2
-36 10 -7 13 -17 15 -43 10 -39 -7 -45 6 -13 29 21 14 68 15 102 1z m2757 -11
c0 -8 -4 -12 -10 -9 -5 3 -10 10 -10 16 0 5 5 9 10 9 6 0 10 -7 10 -16z m985
-44 c-3 -5 -11 -10 -16 -10 -6 0 -7 5 -4 10 3 6 11 10 16 10 6 0 7 -4 4 -10z
m15 -37 c-1 -20 -33 -63 -48 -63 -5 0 -13 8 -17 17 -4 13 2 25 22 40 34 28 43
29 43 6z m-4780 -42 c0 -10 -7 -24 -15 -31 -12 -10 -15 -10 -15 3 0 23 11 47
21 47 5 0 9 -8 9 -19z m4638 7 c-6 -18 -28 -21 -28 -4 0 9 7 16 16 16 9 0 14
-5 12 -12z m-4094 -17 c9 -15 -23 -36 -36 -23 -5 5 -7 15 -4 21 9 13 33 14 40
2z m-58 -12 c7 -12 -15 -31 -28 -23 -4 3 -8 12 -8 20 0 17 26 19 36 3z m4032
-21 c16 -16 16 -71 0 -65 -7 2 -13 15 -13 28 0 13 -4 30 -8 37 -10 15 5 16 21
0z m187 -18 c-3 -5 -10 -10 -16 -10 -5 0 -9 5 -9 10 0 6 7 10 16 10 8 0 12 -4
9 -10z m-3764 -11 c22 -11 15 -34 -7 -25 -15 6 -18 -3 -8 -28 5 -12 10 -13 26
-5 27 15 32 7 33 -54 1 -29 3 -56 5 -62 2 -5 -2 -23 -8 -38 -7 -16 -12 -41
-12 -55 0 -15 -7 -38 -16 -50 -12 -18 -15 -46 -14 -125 2 -125 2 -181 1 -227
-1 -19 -1 -48 -1 -64 0 -16 -7 -37 -16 -47 -20 -22 -11 -39 17 -32 17 5 20 2
17 -13 -2 -10 -11 -19 -20 -19 -10 0 -23 -8 -30 -18 -13 -17 -15 -17 -36 6
-19 20 -21 28 -12 51 16 44 12 77 -14 100 -14 11 -28 38 -31 59 -6 33 -5 37
13 37 11 0 22 -6 25 -12 6 -18 37 59 37 92 0 15 10 40 22 55 l22 28 -27 -7
c-22 -5 -27 -3 -27 11 0 10 4 24 9 32 6 9 5 21 -2 32 -14 23 9 55 28 39 9 -8
14 -5 18 12 4 12 1 25 -5 29 -6 4 -7 12 -4 18 5 7 -2 11 -18 11 -32 0 -34 20
-5 66 21 35 19 54 -7 54 -13 0 -19 13 -14 35 1 6 3 26 5 45 1 19 8 36 14 38 6
2 11 12 11 23 0 22 4 23 31 8z m-931 -17 c0 -13 -12 -22 -22 -16 -10 6 -1 24
13 24 5 0 9 -4 9 -8z m295 -12 c3 -5 -1 -10 -10 -10 -9 0 -13 5 -10 10 3 6 8
10 10 10 2 0 7 -4 10 -10z m253 -7 c6 -20 -27 -27 -54 -13 -13 8 -24 16 -24
20 0 13 73 5 78 -7z m3829 5 c15 -6 35 -18 44 -25 9 -8 36 -24 60 -36 47 -24
65 -57 31 -57 -15 0 -19 -5 -15 -20 3 -11 1 -20 -4 -20 -6 0 -18 9 -28 20 -10
11 -24 20 -31 20 -7 0 -19 8 -26 18 -7 10 -21 21 -30 25 -11 4 -18 17 -18 32
0 14 -7 28 -15 31 -8 4 -12 10 -9 15 7 11 8 11 41 -3z m-247 -15 c0 -5 -4 -15
-10 -23 -11 -18 -25 -7 -17 15 6 15 27 21 27 8z m1000 -1 c0 -13 -12 -22 -22
-16 -10 6 -1 24 13 24 5 0 9 -4 9 -8z m-4510 -17 c10 -12 10 -15 -4 -15 -9 0
-16 7 -16 15 0 8 2 15 4 15 2 0 9 -7 16 -15z m-540 -15 c0 -5 -7 -10 -15 -10
-8 0 -15 5 -15 10 0 6 7 10 15 10 8 0 15 -4 15 -10z m4174 -5 c-4 -8 -13 -15
-21 -15 -13 0 -13 3 -3 15 7 8 16 15 21 15 5 0 6 -7 3 -15z m-4137 -37 c-3 -7
-5 -2 -5 12 0 14 2 19 5 13 2 -7 2 -19 0 -25z m4483 -38 c0 -21 -5 -30 -16
-30 -9 0 -13 5 -10 13 3 6 9 20 12 30 9 25 14 21 14 -13z m-3493 -42 c0 -24 4
-55 8 -70 8 -29 0 -34 -24 -19 -14 9 -25 84 -15 113 11 36 31 19 31 -24z
m3136 22 c32 -5 61 -11 65 -15 4 -4 -5 -5 -19 -2 -14 4 -48 3 -76 -2 -56 -9
-93 5 -70 28 6 6 18 8 27 5 8 -4 41 -10 73 -14z m313 -27 c-10 -10 -19 5 -10
18 6 11 8 11 12 0 2 -7 1 -15 -2 -18z m-4736 13 c0 -3 -4 -8 -10 -11 -5 -3
-10 -1 -10 4 0 6 5 11 10 11 6 0 10 -2 10 -4z m4666 -73 c34 -57 43 -93 23
-93 -16 0 -47 41 -53 70 -9 49 -15 105 -10 92 3 -7 21 -38 40 -69z m170 51
c-4 -10 1 -25 10 -35 15 -16 15 -19 2 -19 -9 0 -21 6 -28 14 -6 8 -20 16 -31
18 -28 4 -23 23 5 23 13 0 28 3 32 8 12 12 17 8 10 -9z m-4656 -13 c0 -6 -4
-13 -10 -16 -5 -3 -10 1 -10 9 0 9 5 16 10 16 6 0 10 -4 10 -9z m4410 -1 c0
-5 -4 -10 -10 -10 -5 0 -10 5 -10 10 0 6 5 10 10 10 6 0 10 -4 10 -10z m40
-70 c0 -5 -5 -10 -11 -10 -5 0 -7 5 -4 10 3 6 8 10 11 10 2 0 4 -4 4 -10z
m-287 -45 c-7 -21 -13 -19 -13 6 0 11 4 18 10 14 5 -3 7 -12 3 -20z m445 14
c-2 -6 -8 -10 -13 -10 -5 0 -11 4 -13 10 -2 6 4 11 13 11 9 0 15 -5 13 -11z
m-603 -93 c-8 -78 -18 -92 -47 -62 -8 7 -24 17 -37 21 -15 4 -20 10 -13 17 6
6 17 5 30 -3 30 -19 50 3 58 62 10 77 17 50 9 -35z m665 44 c0 -11 -4 -20 -9
-20 -13 0 -32 26 -24 33 13 14 33 6 33 -13z m463 6 c6 -16 -2 -28 -14 -20 -12
7 -11 34 0 34 5 0 11 -6 14 -14z m-623 -36 c0 -5 -4 -10 -10 -10 -5 0 -10 5
-10 10 0 6 5 10 10 10 6 0 10 -4 10 -10z m-50 -40 c0 -5 -4 -10 -10 -10 -5 0
-10 5 -10 10 0 6 5 10 10 10 6 0 10 -4 10 -10z m-3930 -62 c0 -14 -50 -41 -59
-32 -7 6 36 44 50 44 5 0 9 -6 9 -12z m3427 -20 c-3 -8 -6 -5 -6 6 -1 11 2 17
5 13 3 -3 4 -12 1 -19z m-3577 -34 c0 -8 -5 -12 -10 -9 -6 4 -8 11 -5 16 9 14
15 11 15 -7z m625 -4 c7 -12 -12 -50 -25 -50 -6 0 -10 14 -10 30 0 30 21 42
35 20z m2981 -38 c-12 -11 -18 7 -10 30 l8 23 4 -23 c2 -13 1 -26 -2 -30z
m964 -22 c0 -5 -2 -10 -4 -10 -3 0 -8 5 -11 10 -3 6 -1 10 4 10 6 0 11 -4 11
-10z m-136 -26 c4 -9 5 -19 3 -21 -8 -8 -37 10 -37 23 0 19 26 18 34 -2z
m-814 -15 c0 -11 -4 -17 -10 -14 -5 3 -10 13 -10 21 0 8 5 14 10 14 6 0 10 -9
10 -21z m873 -1 c3 -10 10 -10 31 2 26 13 29 13 44 -8 12 -15 23 -20 40 -16
18 5 22 2 22 -15 0 -23 11 -26 40 -11 25 14 33 -2 14 -28 -12 -18 -19 -20 -34
-12 -36 19 -50 13 -43 -20 4 -25 2 -30 -13 -30 -34 0 -64 12 -64 25 0 7 -8 23
-19 36 -16 20 -21 21 -35 10 -14 -12 -16 -9 -16 33 0 33 4 46 14 46 8 0 16 -6
19 -12z m-1610 -48 c19 -21 27 -41 27 -66 0 -19 5 -44 11 -56 14 -26 -5 -170
-32 -242 -23 -64 -49 -88 -113 -110 -68 -22 -84 -22 -62 3 10 11 19 43 22 82
6 62 5 65 -20 78 -14 8 -29 12 -32 8 -15 -15 -45 15 -42 40 4 38 21 38 62 3
30 -26 41 -31 66 -25 39 9 46 25 26 64 -23 43 -20 56 19 82 33 23 34 24 16 44
-10 11 -21 34 -25 50 -4 17 -17 37 -28 46 -32 25 -14 42 36 36 29 -4 49 -15
69 -37z m1567 -9 c0 -9 5 -22 12 -29 8 -8 8 -15 1 -24 -12 -15 -11 -114 2
-141 20 -45 -48 -97 -83 -63 -9 9 -25 22 -34 29 -10 7 -20 31 -24 54 -6 38 -4
42 17 45 16 2 24 9 23 21 -1 13 3 16 16 12 24 -7 48 31 31 48 -15 15 -14 64 2
70 19 7 37 -4 37 -22z m-3210 -30 c0 -6 -4 -13 -10 -16 -5 -3 -10 1 -10 9 0 9
5 16 10 16 6 0 10 -4 10 -9z m-60 -24 c0 -19 -21 -37 -42 -37 -23 0 -23 26 0
39 24 14 42 13 42 -2z m-1374 -54 c-7 -7 -26 7 -26 19 0 6 6 6 15 -2 9 -7 13
-15 11 -17z m4679 17 c3 -5 -1 -10 -10 -10 -9 0 -13 5 -10 10 3 6 8 10 10 10
2 0 7 -4 10 -10z m12 -42 c-3 -8 -6 -5 -6 6 -1 11 2 17 5 13 3 -3 4 -12 1 -19z
m-4162 -8 c3 -5 1 -10 -4 -10 -6 0 -11 5 -11 10 0 6 2 10 4 10 3 0 8 -4 11
-10z m850 -41 c4 -11 18 -24 31 -29 21 -8 24 -16 24 -63 0 -69 20 -125 57
-163 16 -16 38 -42 50 -59 l21 -30 134 1 c116 0 139 3 177 22 47 23 62 21 45
-5 -18 -29 -64 -36 -230 -36 l-160 0 -64 34 c-78 42 -109 78 -92 111 12 25 12
164 0 145 -5 -8 -8 -6 -8 6 0 24 -17 21 -25 -4 -9 -27 -16 -19 -25 31 -7 37
-5 43 14 50 33 14 44 11 51 -11z m3425 -9 c0 -5 -5 -10 -11 -10 -5 0 -7 5 -4
10 3 6 8 10 11 10 2 0 4 -4 4 -10z m-2589 -20 c10 -6 19 -21 19 -34 0 -13 7
-29 15 -36 8 -7 15 -18 15 -24 0 -6 10 -16 22 -21 24 -10 83 -97 120 -174 l21
-45 19 23 c18 23 19 23 38 6 15 -14 20 -31 20 -71 0 -45 5 -58 30 -86 39 -42
44 -61 28 -95 -12 -25 -19 -28 -68 -31 -84 -5 -159 7 -181 29 -17 17 -29 19
-97 13 -42 -3 -126 -6 -186 -6 -95 -1 -111 1 -123 17 -7 11 -13 28 -13 40 0
26 54 48 97 39 37 -7 50 10 60 83 3 26 13 58 21 71 13 20 13 22 -2 22 -19 0
-21 31 -4 48 7 7 13 18 13 25 0 33 53 163 77 188 29 32 32 33 59 19z m-2234
-42 c-3 -8 -6 -5 -6 6 -1 11 2 17 5 13 3 -3 4 -12 1 -19z m4773 12 c0 -5 -4
-10 -10 -10 -5 0 -10 5 -10 10 0 6 5 10 10 10 6 0 10 -4 10 -10z m-4930 -10
c0 -5 -4 -10 -10 -10 -5 0 -10 5 -10 10 0 6 5 10 10 10 6 0 10 -4 10 -10z
m880 -4 c0 -8 -4 -17 -9 -21 -12 -7 -24 12 -16 25 9 15 25 12 25 -4z m495 4
c3 -5 2 -10 -4 -10 -5 0 -13 5 -16 10 -3 6 -2 10 4 10 5 0 13 -4 16 -10z
m1218 -82 c17 -16 34 -28 39 -28 11 0 81 -110 74 -117 -2 -3 -25 10 -50 28
-34 24 -55 50 -81 103 -19 39 -35 78 -34 86 0 8 5 2 11 -15 6 -16 25 -42 41
-57z m-1061 25 c23 -21 23 -43 -1 -43 -19 0 -31 18 -31 46 0 18 9 18 32 -3z
m-83 -25 c67 -158 94 -193 166 -223 16 -7 44 -18 60 -25 17 -7 24 -15 18 -17
-19 -7 -16 -37 7 -66 11 -14 17 -32 14 -41 -4 -9 0 -18 9 -22 21 -8 10 -40
-24 -68 -16 -14 -29 -29 -29 -33 0 -5 -8 -18 -19 -29 -28 -31 -44 -65 -43 -96
0 -15 -4 -30 -9 -33 -5 -4 -9 0 -9 7 -1 22 -27 -35 -34 -74 -5 -29 -12 -38
-26 -38 -11 0 -20 6 -20 14 0 8 -7 16 -15 20 -11 4 -15 22 -15 72 0 78 -24
141 -55 146 -16 2 -21 13 -26 53 -4 28 -14 79 -23 115 -10 36 -22 90 -27 120
-5 30 -12 68 -15 84 -5 19 -3 27 4 22 6 -3 24 6 41 20 27 22 31 32 31 75 0 58
18 66 39 17z m3473 -6 c16 -16 -38 -27 -67 -14 -15 7 -26 8 -30 2 -9 -15 -35
-12 -35 5 0 7 7 18 16 23 19 10 101 -1 116 -16z m-472 -66 c0 -11 -19 -15 -25
-6 -3 5 1 10 9 10 9 0 16 -2 16 -4z m417 -22 c-3 -3 -12 -4 -19 -1 -8 3 -5 6
6 6 11 1 17 -2 13 -5z m-497 -72 c0 -20 -28 -45 -44 -39 -23 9 -20 26 7 37 29
11 37 12 37 2z m350 -22 c0 -5 -2 -10 -4 -10 -3 0 -8 5 -11 10 -3 6 -1 10 4
10 6 0 11 -4 11 -10z m-533 -26 c-3 -3 -12 -4 -19 -1 -8 3 -5 6 6 6 11 1 17
-2 13 -5z m-3983 -61 c19 -101 19 -113 -3 -113 -19 0 -21 6 -21 70 0 70 14 95
24 43z m-181 -120 c9 -9 -13 -34 -24 -27 -14 8 -11 34 4 34 8 0 17 -3 20 -7z
m-195 -136 c2 -10 -3 -17 -12 -17 -18 0 -29 16 -21 31 9 14 29 6 33 -14z
m1330 -9 c7 -7 15 -8 24 -1 7 5 25 10 41 11 25 2 27 -1 27 -36 0 -48 -4 -52
-41 -42 -25 7 -29 6 -29 -11 0 -27 -10 -23 -49 22 -35 40 -36 69 -3 69 10 0
23 -5 30 -12z m141 -2 c13 -16 4 -49 -13 -43 -14 4 -21 57 -8 57 5 0 15 -6 21
-14z m4105 4 c34 -13 33 -32 -1 -28 -17 2 -29 10 -31 21 -4 20 -2 20 32 7z
m106 0 c8 -5 12 -10 10 -12 -3 -2 -14 -8 -24 -14 -27 -14 -30 -29 -11 -47 20
-21 19 -27 -6 -27 -20 0 -68 37 -69 52 0 4 10 8 23 10 16 2 22 9 21 26 -1 24
27 30 56 12z m-856 -32 c9 -12 13 -24 11 -27 -6 -5 -45 29 -45 41 0 15 19 8
34 -14z m722 -19 c19 -21 19 -21 -6 -18 -14 2 -26 12 -28 22 -5 23 11 22 34
-4z m-5460 -1 c40 2 52 -22 21 -43 -29 -20 -49 -19 -70 5 -23 27 -23 55 1 44
9 -4 31 -7 48 -6z m4526 -40 c-15 -15 -24 -6 -16 16 5 12 10 14 17 7 8 -8 8
-14 -1 -23z m829 -2 c-6 -8 -10 -19 -9 -26 4 -17 -13 -22 -32 -10 -13 8 -10
14 14 35 30 26 48 27 27 1z m-651 4 c0 -5 -4 -10 -10 -10 -5 0 -10 5 -10 10 0
6 5 10 10 10 6 0 10 -4 10 -10z m490 -47 c0 -24 -25 -9 -28 17 -3 21 -2 22 12
11 9 -7 16 -20 16 -28z m69 -15 c22 -37 22 -38 3 -38 -22 0 -49 51 -37 70 4 6
8 10 9 8 2 -2 13 -20 25 -40z m-4332 16 c-3 -3 -12 -4 -19 -1 -8 3 -5 6 6 6
11 1 17 -2 13 -5z m4625 -43 c-7 -30 -9 -32 -21 -17 -11 13 -12 22 -2 43 16
35 32 17 23 -26z m-557 29 c3 -5 4 -14 0 -20 -8 -13 -35 -1 -35 16 0 16 26 19
35 4z m-4065 -57 c0 -16 -16 -17 -25 -3 -4 6 -12 9 -18 8 -13 -3 -17 3 -17 28
0 13 4 13 30 -3 17 -9 30 -23 30 -30z m3947 22 c17 -17 11 -45 -10 -45 -15 0
-39 44 -30 54 10 10 24 7 40 -9z m453 -5 c0 -5 -4 -10 -9 -10 -6 0 -13 5 -16
10 -3 6 1 10 9 10 9 0 16 -4 16 -10z m-5247 -30 c6 -16 17 -30 24 -30 15 0 17
-19 3 -40 -8 -12 -10 -12 -16 3 -3 9 -11 17 -18 17 -17 1 -48 49 -42 66 9 24
37 15 49 -16z m87 -16 c0 -8 -4 -12 -10 -9 -5 3 -10 10 -10 16 0 5 5 9 10 9 6
0 10 -7 10 -16z m55 -4 c3 -5 -1 -10 -10 -10 -9 0 -13 5 -10 10 3 6 8 10 10
10 2 0 7 -4 10 -10z m736 -59 c16 -16 29 -34 29 -39 0 -5 7 -12 15 -16 8 -3
15 -17 15 -32 0 -15 10 -42 22 -62 12 -19 21 -49 20 -68 -1 -26 3 -34 16 -34
12 0 8 -6 -12 -19 -16 -11 -33 -27 -38 -35 -11 -19 -42 -22 -35 -3 2 6 -9 19
-26 27 -28 14 -60 58 -91 126 -13 30 -14 73 -1 93 3 6 1 11 -5 11 -7 0 -10 6
-7 13 2 6 11 11 21 9 15 -3 20 10 19 46 -1 21 27 13 58 -17z m4739 -48 c0 -30
-17 -73 -30 -73 -5 0 -10 7 -10 15 0 9 -7 18 -15 21 -23 9 -18 24 8 21 15 -1
21 3 19 12 -2 8 -6 29 -8 45 l-6 31 21 -25 c11 -14 21 -35 21 -47z m-5175 38
c-3 -5 -1 -12 5 -16 6 -4 8 -11 5 -16 -9 -14 -41 -11 -54 5 -10 11 -8 17 6 25
22 13 46 14 38 2z m3752 -23 c-3 -8 -6 -5 -6 6 -1 11 2 17 5 13 3 -3 4 -12 1
-19z m-1971 -8 c16 -1 49 -1 74 0 25 0 60 -5 79 -11 18 -6 81 -11 140 -11 111
0 132 -6 124 -37 -6 -25 -42 -34 -69 -16 -19 12 -24 11 -43 -11 -23 -26 -53
-30 -98 -13 -19 7 -29 7 -31 0 -5 -14 -89 -14 -98 0 -4 6 -19 9 -37 5 -18 -4
-36 -1 -45 6 -8 7 -27 13 -41 13 -17 0 -30 9 -40 27 -14 24 -14 28 3 47 14 15
23 18 36 11 10 -5 30 -10 46 -10z m-1726 -10 c0 -5 -4 -10 -10 -10 -5 0 -10 5
-10 10 0 6 5 10 10 10 6 0 10 -4 10 -10z m-102 -46 c-10 -10 -28 6 -28 24 0
15 1 15 17 -1 9 -9 14 -19 11 -23z m-218 16 c0 -5 -5 -10 -11 -10 -5 0 -7 5
-4 10 3 6 8 10 11 10 2 0 4 -4 4 -10z m1368 -22 c2 -9 -6 -18 -18 -21 -16 -4
-20 -2 -16 10 3 8 6 19 6 25 0 15 25 3 28 -14z m3365 16 c8 -9 -11 -44 -23
-44 -6 0 -10 8 -10 18 0 27 18 41 33 26z m-3678 -47 c28 -6 53 -14 56 -19 3
-5 16 -11 29 -13 13 -3 36 -16 49 -30 l26 -25 -24 0 c-20 0 -22 -4 -17 -26 4
-16 0 -41 -11 -65 -17 -40 -28 -48 -35 -27 -3 7 -25 13 -54 14 -27 1 -64 3
-82 6 -18 2 -35 1 -38 -4 -3 -4 -14 -8 -25 -8 -11 0 -22 -7 -25 -15 -8 -20
-54 -20 -54 0 0 15 27 34 45 32 5 -1 11 6 13 17 3 16 0 18 -22 12 -33 -8 -33
1 -1 44 28 37 17 54 -15 25 -21 -19 -50 -14 -50 9 0 26 12 46 23 39 6 -4 8 0
4 10 -5 13 0 17 21 17 16 0 32 4 38 9 11 12 64 20 84 13 8 -2 38 -9 65 -15z
m-960 -33 c29 -24 29 -25 11 -39 -22 -17 -36 -11 -36 15 0 10 -7 21 -16 24 -8
3 -12 10 -9 16 9 15 17 12 50 -16z m1755 13 c0 -23 31 -78 40 -72 5 3 8 -27 8
-67 0 -49 5 -83 16 -103 9 -16 16 -40 16 -51 0 -29 49 -114 65 -114 21 0 28
-18 21 -56 -9 -45 -36 -60 -75 -39 -17 8 -41 15 -54 15 -31 0 -40 12 -55 73
-8 32 -9 54 -2 66 5 10 7 20 5 23 -3 2 -7 22 -9 44 -11 95 -19 131 -36 164 -9
19 -18 50 -18 67 -1 27 4 34 24 39 13 3 24 10 24 15 0 5 7 9 15 9 8 0 15 -6
15 -13z m-560 -17 c0 -5 -4 -10 -10 -10 -5 0 -10 5 -10 10 0 6 5 10 10 10 6 0
10 -4 10 -10z m-1290 -20 c8 -5 11 -12 8 -16 -10 -9 -38 3 -38 16 0 12 10 13
30 0z m2657 -48 c12 -26 26 -59 32 -74 15 -41 51 -35 65 10 9 27 18 28 41 2
19 -21 19 -20 61 21 27 27 44 37 49 29 4 -6 0 -19 -7 -28 -32 -37 -48 -156
-19 -138 5 4 6 -8 1 -28 -6 -28 -3 -38 20 -62 23 -25 25 -33 16 -55 -6 -14
-17 -24 -24 -22 -7 3 -19 -10 -27 -31 -8 -19 -32 -49 -52 -65 -21 -17 -47 -44
-58 -61 -11 -16 -24 -30 -29 -30 -6 0 -22 -12 -38 -27 -23 -22 -31 -25 -51
-16 -15 7 -29 8 -38 2 -8 -5 -20 -9 -26 -9 -19 0 -16 47 3 58 11 6 13 11 5 16
-6 4 -11 2 -11 -3 0 -6 -5 -11 -11 -11 -8 0 -10 23 -6 79 l5 79 -26 -1 c-33
-2 -45 32 -14 40 25 6 35 39 16 57 -7 8 -16 32 -20 55 -4 23 -12 41 -19 41
-19 0 -33 50 -24 85 5 16 6 40 2 52 -7 30 21 63 56 64 14 0 35 4 46 9 43 18
59 11 82 -38z m1070 -14 c-3 -8 -6 -5 -6 6 -1 11 2 17 5 13 3 -3 4 -12 1 -19z
m-1409 5 c-10 -2 -26 -2 -35 0 -10 3 -2 5 17 5 19 0 27 -2 18 -5z m-1853 -38
c0 -11 -8 -21 -17 -23 -14 -3 -18 3 -18 23 0 20 4 26 18 23 9 -2 17 -12 17
-23z m872 -1 c-3 -3 -12 -4 -19 -1 -8 3 -5 6 6 6 11 1 17 -2 13 -5z m-117 -74
c-36 -28 -46 -24 -14 5 15 14 30 23 33 19 3 -3 -5 -14 -19 -24z m-70 -69 c-20
-30 -49 -45 -34 -18 10 17 48 54 53 51 2 -2 -7 -17 -19 -33z m-50 -65 c0 -3
-4 -8 -10 -11 -5 -3 -10 -1 -10 4 0 6 5 11 10 11 6 0 10 -2 10 -4z m-65 -103
c-61 -133 -77 -163 -86 -163 -14 0 -10 12 23 70 15 28 29 63 25 67 -8 7 -94
-37 -118 -61 -42 -42 -50 -56 -48 -79 3 -28 -16 -96 -35 -123 -14 -19 -26 -21
-115 -22 -104 -1 -126 7 -98 36 14 13 18 13 33 1 18 -15 51 -14 70 2 7 5 20
43 29 84 12 48 23 75 31 75 8 0 14 -7 14 -15 0 -21 28 -19 34 3 9 26 42 55
101 88 28 15 75 44 105 64 30 21 56 37 58 35 2 -2 -9 -29 -23 -62z m4435 -74
c0 -4 -9 -7 -20 -6 -11 1 -20 7 -20 13 0 7 8 10 20 7 11 -3 20 -9 20 -14z
m-5432 -32 c2 -15 8 -27 13 -27 5 0 9 -6 9 -14 0 -8 5 -27 10 -41 8 -22 13
-25 25 -15 7 6 26 10 42 8 22 -2 29 -9 34 -33 l7 -30 1 33 c1 26 5 33 19 30
13 -3 17 -13 17 -42 0 -23 5 -41 13 -43 23 -8 13 -33 -14 -33 -16 0 -36 -12
-54 -32 l-30 -32 -31 23 c-17 12 -32 21 -33 19 -1 -1 -6 -16 -11 -32 -6 -16
-16 -31 -22 -33 -22 -8 -35 48 -35 147 0 52 -4 101 -10 107 -7 9 -6 15 6 19 9
3 16 17 16 31 0 33 24 25 28 -10z m456 -49 c4 -21 3 -38 -2 -38 -15 0 -27 43
-24 80 3 29 6 31 12 15 4 -11 10 -37 14 -57z m4996 25 c0 -17 -19 -35 -29 -29
-18 12 -12 36 9 36 11 0 20 -3 20 -7z m-75 -33 c3 -5 -3 -10 -15 -10 -12 0
-18 5 -15 10 3 6 10 10 15 10 5 0 12 -4 15 -10z m-5019 -39 c29 -23 23 -28
-31 -29 -56 -2 -74 11 -44 32 30 21 45 20 75 -3z m-108 -24 c2 -15 -1 -27 -6
-27 -17 0 -34 29 -28 46 9 23 31 11 34 -19z m5039 -79 c-3 -8 -6 -5 -6 6 -1
11 2 17 5 13 3 -3 4 -12 1 -19z m-4772 2 c-3 -5 -13 -10 -21 -10 -8 0 -14 5
-14 10 0 6 9 10 21 10 11 0 17 -4 14 -10z m-335 -29 c0 -5 -7 -12 -16 -15 -24
-9 -28 -7 -14 9 14 17 30 20 30 6z m5233 -63 c12 -7 24 -14 26 -15 6 -4 -31
-43 -41 -43 -4 0 -8 5 -8 11 0 7 -8 18 -17 25 -16 12 -16 15 -3 24 19 12 16
12 43 -2z m-53 -42 c0 -3 -4 -8 -10 -11 -5 -3 -10 -1 -10 4 0 6 5 11 10 11 6
0 10 -2 10 -4z m127 -13 c2 -5 -8 -18 -22 -27 -23 -15 -26 -15 -31 -1 -4 9 1
22 12 30 21 16 36 15 41 -2z m-5762 -509 c9 -10 14 -25 12 -36 -4 -15 -1 -18
15 -12 39 12 54 -57 16 -77 -19 -10 -19 -13 -5 -20 9 -5 14 -16 10 -24 -3 -9
1 -22 8 -31 11 -14 11 -18 -2 -28 -8 -6 -22 -24 -32 -39 -22 -33 -61 -35 -63
-2 -1 27 -26 85 -37 85 -4 0 -25 11 -45 25 -20 14 -43 25 -52 25 -13 0 -13 -1
0 -10 13 -9 13 -11 0 -20 -8 -5 -20 -10 -26 -10 -12 0 -27 107 -17 123 3 5 20
6 37 3 26 -5 37 -2 52 15 21 24 69 48 96 49 9 0 24 -7 33 -16z m1101 -214 c10
-9 33 -11 75 -6 85 8 141 -24 65 -38 -22 -4 -37 -14 -41 -26 -8 -24 -15 -25
-41 -5 -28 21 -45 18 -74 -13 -14 -15 -47 -45 -74 -67 -39 -30 -50 -35 -57
-24 -26 42 -28 44 -41 31 -23 -23 -48 -14 -48 17 0 16 -7 34 -15 41 -15 13
-21 42 -7 38 17 -6 124 36 134 52 8 13 22 16 60 14 27 -1 55 -8 64 -14z m14
-144 c0 -3 -4 -8 -10 -11 -5 -3 -10 -1 -10 4 0 6 5 11 10 11 6 0 10 -2 10 -4z
m130 -156 c-12 -22 -40 -27 -40 -7 0 19 10 27 32 27 16 0 17 -3 8 -20z m1402
-602 c-15 -15 -26 -4 -18 18 5 13 9 15 18 6 9 -9 9 -15 0 -24z"/>
<path d="M1573 3828 c2 -7 10 -13 17 -13 7 0 15 6 18 13 2 7 -5 12 -18 12 -13
0 -20 -5 -17 -12z"/>
<path d="M1160 4030 c0 -19 3 -21 12 -12 9 9 9 15 0 24 -9 9 -12 7 -12 -12z"/>
<path d="M4690 4549 c0 -5 5 -7 10 -4 6 3 10 8 10 11 0 2 -4 4 -10 4 -5 0 -10
-5 -10 -11z"/>
<path d="M4722 4529 c2 -7 10 -15 17 -17 8 -3 12 1 9 9 -2 7 -10 15 -17 17 -8
3 -12 -1 -9 -9z"/>
<path d="M5214 3886 c-8 -22 3 -33 18 -18 9 9 9 15 0 24 -9 9 -13 7 -18 -6z"/>
<path d="M2720 3554 c0 -8 5 -12 10 -9 6 3 10 10 10 16 0 5 -4 9 -10 9 -5 0
-10 -7 -10 -16z"/>
<path d="M522 1884 c4 -21 22 -23 26 -1 2 10 -3 17 -13 17 -10 0 -15 -6 -13
-16z"/>
<path d="M5760 6114 c0 -9 5 -14 12 -12 18 6 21 28 4 28 -9 0 -16 -7 -16 -16z"/>
<path d="M544 6109 c-3 -6 -1 -16 5 -22 8 -8 11 -5 11 11 0 24 -5 28 -16 11z"/>
<path d="M420 6100 c0 -5 5 -10 10 -10 6 0 10 5 10 10 0 6 -4 10 -10 10 -5 0
-10 -4 -10 -10z"/>
<path d="M380 6079 c0 -11 5 -17 10 -14 6 3 10 13 10 21 0 8 -4 14 -10 14 -5
0 -10 -9 -10 -21z"/>
<path d="M6122 5990 c0 -14 2 -19 5 -12 2 6 2 18 0 25 -3 6 -5 1 -5 -13z"/>
<path d="M975 5860 c-3 -5 -1 -10 4 -10 6 0 11 5 11 10 0 6 -2 10 -4 10 -3 0
-8 -4 -11 -10z"/>
<path d="M3375 5650 c-3 -5 1 -10 10 -10 9 0 13 5 10 10 -3 6 -8 10 -10 10 -2
0 -7 -4 -10 -10z"/>
<path d="M3190 5620 c0 -5 5 -10 11 -10 5 0 7 5 4 10 -3 6 -8 10 -11 10 -2 0
-4 -4 -4 -10z"/>
<path d="M5760 5610 c0 -11 5 -20 10 -20 6 0 10 9 10 20 0 11 -4 20 -10 20 -5
0 -10 -9 -10 -20z"/>
<path d="M5828 5613 c-19 -21 -24 -53 -8 -53 13 0 32 38 28 57 -3 13 -6 12
-20 -4z"/>
<path d="M3232 5560 c0 -14 2 -19 5 -12 2 6 2 18 0 25 -3 6 -5 1 -5 -13z"/>
<path d="M6015 5360 c-8 -16 -15 -44 -15 -63 0 -18 -4 -37 -9 -42 -5 -6 -12
-19 -15 -31 -6 -18 -2 -20 44 -20 27 0 50 3 50 7 0 4 14 16 30 26 32 18 40 43
15 43 -9 0 -21 11 -27 25 -10 22 -9 28 10 41 25 17 30 39 8 31 -8 -3 -29 -2
-46 3 -27 8 -32 6 -45 -20z m48 -42 c6 -21 -7 -48 -23 -48 -13 0 -18 36 -8 54
12 22 25 20 31 -6z"/>
<path d="M990 5364 c0 -14 3 -14 15 -4 8 7 15 14 15 16 0 2 -7 4 -15 4 -8 0
-15 -7 -15 -16z"/>
<path d="M880 5339 c0 -6 4 -18 9 -28 10 -17 1 -42 -15 -43 -12 -1 -53 -17
-86 -34 -14 -8 -35 -14 -46 -14 -12 0 -23 -4 -27 -9 -7 -12 35 -42 48 -34 5 3
25 8 45 10 42 6 61 -13 63 -61 1 -24 3 -26 6 -8 2 12 9 22 14 22 5 0 9 11 9
25 0 20 5 25 25 25 14 0 25 -5 25 -12 0 -7 12 7 27 29 26 40 43 47 43 17 0
-19 19 -18 26 1 4 8 15 15 27 15 28 0 109 49 104 63 -2 7 -18 20 -37 29 -25
13 -37 15 -47 6 -8 -6 -36 -12 -63 -12 -27 -1 -51 -4 -55 -7 -9 -10 -53 2 -66
17 -14 17 -29 18 -29 3z"/>
<path d="M3660 5314 c0 -8 5 -12 10 -9 6 3 10 10 10 16 0 5 -4 9 -10 9 -5 0
-10 -7 -10 -16z"/>
<path d="M993 5160 c0 -25 2 -35 4 -22 2 12 2 32 0 45 -2 12 -4 2 -4 -23z"/>
<path d="M5377 5058 c-23 -18 -27 -61 -6 -66 10 -2 19 5 22 18 4 17 28 26 60
21 4 0 7 5 7 13 0 26 -54 35 -83 14z"/>
<path d="M5480 5043 c0 -26 1 -26 15 -7 19 25 19 34 0 34 -10 0 -15 -10 -15
-27z"/>
<path d="M3692 4999 c2 -7 10 -15 17 -17 8 -3 12 1 9 9 -2 7 -10 15 -17 17 -8
3 -12 -1 -9 -9z"/>
<path d="M0 4932 c0 -18 5 -32 10 -32 6 0 8 11 4 28 -10 39 -14 40 -14 4z"/>
<path d="M3850 4929 c0 -6 14 -31 30 -56 17 -24 30 -48 30 -54 0 -5 7 -9 15
-9 17 0 20 16 5 25 -5 3 -10 15 -10 26 0 10 -9 28 -20 39 -11 11 -20 25 -20
30 0 6 -7 10 -15 10 -8 0 -15 -5 -15 -11z"/>
<path d="M3740 4906 c0 -15 24 -66 31 -66 12 0 11 11 -3 43 -11 22 -28 37 -28
23z"/>
<path d="M3616 4801 c-7 -80 -3 -117 19 -161 18 -34 41 -90 50 -118 4 -13 44
-60 89 -106 62 -62 89 -82 107 -81 21 2 24 6 23 41 -2 74 -11 140 -23 161 -6
12 -11 33 -11 46 0 19 -4 24 -17 21 -12 -3 -25 7 -41 31 -23 36 -46 45 -55 23
-3 -7 -6 -4 -6 7 -1 12 -10 38 -21 60 -12 23 -17 48 -14 62 7 25 -5 30 -24 11
-9 -9 -16 -1 -32 35 -12 26 -25 47 -29 47 -5 0 -12 -35 -15 -79z"/>
<path d="M185 4850 c-3 -5 1 -10 9 -10 9 0 16 5 16 10 0 6 -4 10 -9 10 -6 0
-13 -4 -16 -10z"/>
<path d="M3810 4764 c0 -12 7 -27 15 -34 20 -17 21 9 0 36 -14 19 -14 19 -15
-2z"/>
<path d="M5973 4713 c-22 -4 -30 -22 -17 -36 8 -7 54 22 54 34 0 5 -3 8 -7 8
-5 -1 -18 -4 -30 -6z"/>
<path d="M43 4703 c-15 -5 -17 -29 -4 -37 4 -3 13 6 19 19 11 25 9 28 -15 18z"/>
<path d="M5910 4623 l1 -38 15 28 c15 27 12 47 -7 47 -5 0 -9 -17 -9 -37z"/>
<path d="M5605 4601 c-8 -25 21 -64 50 -69 11 -2 24 -7 29 -12 12 -12 -2 -30
-18 -24 -9 3 -15 -6 -20 -26 -3 -19 -13 -34 -25 -37 -21 -5 -41 -43 -41 -78 0
-33 -16 -99 -55 -230 -67 -221 -69 -231 -54 -267 10 -24 10 -33 1 -36 -7 -2
-12 -8 -12 -13 0 -6 4 -8 8 -5 5 3 18 -4 30 -14 21 -20 21 -20 54 0 18 11 43
24 56 30 23 10 29 25 12 35 -13 8 -3 25 16 25 8 0 14 -7 14 -15 0 -8 5 -15 10
-15 6 0 10 -9 10 -20 0 -14 5 -18 16 -13 10 4 22 -1 30 -12 13 -18 15 -18 37
3 24 23 47 29 47 13 0 -5 10 -20 22 -34 19 -22 24 -23 48 -10 15 7 41 16 58
19 28 6 32 4 32 -15 0 -15 -6 -21 -24 -21 -21 0 -23 -5 -23 -40 0 -45 12 -61
22 -30 3 11 12 20 20 20 7 0 23 11 36 25 13 13 31 25 40 25 8 0 20 5 26 11 8
8 13 8 17 0 4 -6 18 -11 32 -11 22 0 24 4 24 44 0 39 -3 45 -27 52 -16 4 -30
8 -33 9 -3 1 -18 5 -35 10 -16 4 -33 12 -36 17 -4 6 -14 5 -25 -2 -14 -8 -27
-9 -46 -1 -34 13 -44 56 -24 105 14 33 13 36 -2 45 -16 9 -16 10 1 16 9 4 25
4 35 0 29 -13 44 -16 120 -22 67 -5 74 -4 70 12 -1 10 -10 19 -18 21 -8 1 -22
5 -31 9 -10 3 -20 2 -24 -4 -11 -19 -51 -12 -61 10 -9 20 -11 20 -26 5 -22
-21 -38 -20 -38 2 0 24 30 52 56 52 12 0 26 14 37 36 17 35 17 36 -3 41 -11 3
-23 17 -27 32 -3 14 -12 31 -19 36 -7 6 -14 19 -16 29 -1 11 -9 21 -16 24 -10
3 -12 -4 -7 -32 5 -26 4 -36 -5 -36 -17 0 -39 -30 -40 -54 0 -15 -3 -16 -15
-6 -17 14 -20 40 -4 40 5 0 7 5 4 10 -9 14 4 52 16 45 5 -4 9 0 9 8 0 7 -12
19 -26 26 -23 10 -26 16 -21 44 3 18 3 26 0 19 -2 -6 -9 -9 -15 -6 -5 3 -19
-4 -31 -17 -15 -16 -22 -19 -25 -9 -3 7 6 22 19 33 34 27 34 93 0 125 -15 13
-31 20 -42 17 -9 -3 -20 -1 -24 4 -3 6 -18 8 -33 5 -22 -3 -31 1 -47 28 -25
39 -41 45 -50 19z m95 -197 c0 -3 -7 -1 -15 6 -8 7 -15 17 -15 22 0 5 7 3 15
-6 8 -8 15 -18 15 -22z m235 -184 c-5 -8 -11 -8 -17 -2 -6 6 -7 16 -3 22 5 8
11 8 17 2 6 -6 7 -16 3 -22z m-101 -204 c-3 -8 -1 -17 5 -21 6 -3 11 -17 11
-31 0 -17 -5 -24 -20 -24 -21 0 -28 24 -10 35 6 3 10 11 10 17 0 6 -9 3 -19
-6 -15 -14 -24 -15 -40 -6 -34 17 -26 38 17 43 20 2 40 4 44 5 4 1 5 -4 2 -12z
m43 -18 c-3 -8 -6 -5 -6 6 -1 11 2 17 5 13 3 -3 4 -12 1 -19z m-194 -36 c-3
-14 -12 -22 -21 -20 -25 5 -25 24 0 35 28 13 29 13 21 -15z m-93 -117 c0 -8
-4 -15 -10 -15 -5 0 -10 7 -10 15 0 8 5 15 10 15 6 0 10 -7 10 -15z"/>
<path d="M5902 4568 c-24 -24 -14 -45 24 -53 46 -8 53 -1 17 19 -15 8 -22 15
-15 16 16 0 16 30 -1 30 -7 0 -18 -5 -25 -12z"/>
<path d="M3810 4320 c0 -6 7 -24 15 -40 14 -28 14 -30 -9 -45 -25 -17 -25 -45
-1 -45 8 0 23 -12 34 -26 20 -26 22 -26 41 -9 16 15 18 26 13 84 -6 70 -18 96
-33 71 -8 -12 -11 -12 -28 3 -21 19 -32 22 -32 7z"/>
<path d="M152 4309 c2 -7 10 -15 17 -17 8 -3 12 1 9 9 -2 7 -10 15 -17 17 -8
3 -12 -1 -9 -9z"/>
<path d="M3750 4305 c0 -23 26 -65 41 -65 16 0 10 24 -16 55 -21 26 -24 28
-25 10z"/>
<path d="M6114 4275 c-3 -8 -3 -18 0 -24 4 -6 -5 -9 -20 -8 -15 1 -31 -5 -37
-15 -15 -23 -1 -35 23 -20 11 7 27 12 35 12 10 0 15 10 15 35 0 37 -7 45 -16
20z"/>
<path d="M3822 4109 c2 -6 7 -10 11 -10 4 1 14 1 22 1 8 0 15 5 15 10 0 6 -12
10 -26 10 -14 0 -24 -5 -22 -11z"/>
<path d="M3880 4102 c0 -24 16 -46 28 -38 6 3 8 15 5 25 -7 26 -33 36 -33 13z"/>
<path d="M3790 4046 c0 -20 10 -25 64 -32 55 -8 59 4 10 29 -42 21 -74 22 -74
3z"/>
<path d="M990 3958 c0 -9 5 -20 10 -23 13 -8 13 5 0 25 -8 13 -10 13 -10 -2z"/>
<path d="M83 3910 c-5 -19 -24 -25 -65 -21 -15 2 -18 -6 -18 -51 1 -50 3 -54
40 -80 22 -15 40 -35 40 -43 0 -33 29 -14 35 23 3 20 8 46 10 57 2 10 2 45 -2
77 -4 41 -10 58 -20 58 -8 0 -17 -9 -20 -20z"/>
<path d="M3907 3893 c-10 -9 -9 -43 1 -43 18 0 45 28 38 38 -8 13 -29 16 -39
5z"/>
<path d="M671 3864 c0 -11 3 -14 6 -6 3 7 2 16 -1 19 -3 4 -6 -2 -5 -13z"/>
<path d="M3994 3816 l-38 -33 24 -83 c26 -92 29 -181 9 -272 -7 -32 -9 -61 -6
-65 16 -15 30 20 43 110 8 52 23 123 34 157 32 100 24 220 -14 220 -8 0 -31
-15 -52 -34z"/>
<path d="M662 3820 c0 -14 2 -19 5 -12 2 6 2 18 0 25 -3 6 -5 1 -5 -13z"/>
<path d="M132 3774 c1 -9 9 -19 16 -22 9 -3 13 2 10 14 -1 9 -9 19 -16 22 -9
3 -13 -2 -10 -14z"/>
<path d="M5426 3753 c-8 -21 -7 -25 3 -18 12 7 40 -50 31 -64 -4 -8 -15 -5
-35 11 l-28 22 6 -37 c3 -20 2 -39 -3 -42 -5 -3 -5 -20 0 -38 5 -17 10 -72 12
-121 l4 -90 33 -18 c38 -21 44 -18 60 32 13 38 45 78 79 98 26 14 72 16 72 2
0 -5 5 -10 10 -10 19 0 10 15 -19 32 -28 16 -39 39 -55 120 -5 22 -11 26 -41
25 -44 -1 -53 8 -30 33 12 13 14 20 5 20 -6 0 -21 11 -31 24 -22 28 -66 39
-73 19z"/>
<path d="M5565 3739 c-8 -24 -1 -34 19 -26 9 4 12 14 9 26 -7 27 -20 27 -28 0z"/>
<path d="M92 3658 c-9 -35 -39 -50 -47 -24 -3 9 -7 23 -10 31 -2 8 -11 12 -19
9 -12 -5 -14 -37 -13 -187 2 -175 3 -182 22 -183 11 0 26 4 33 9 8 7 18 4 30
-7 27 -23 32 -12 32 67 0 55 -4 73 -17 83 -17 13 -17 14 3 20 17 5 21 14 23
57 1 29 6 54 11 55 16 6 11 32 -5 32 -10 0 -15 11 -15 35 0 44 -17 46 -28 3z"/>
<path d="M3858 3608 c-10 -29 44 -238 62 -238 4 0 10 26 14 58 3 31 9 71 12
88 4 23 1 35 -11 45 -9 8 -26 24 -37 37 -24 25 -34 28 -40 10z"/>
<path d="M5710 3600 c0 -5 7 -10 16 -10 8 0 12 5 9 10 -3 6 -10 10 -16 10 -5
0 -9 -4 -9 -10z"/>
<path d="M5376 3459 c-9 -28 -13 -109 -6 -109 18 0 28 29 24 69 -4 48 -11 62
-18 40z"/>
<path d="M6075 3378 c-4 -9 -2 -24 3 -33 12 -23 22 2 12 30 -7 18 -9 18 -15 3z"/>
<path d="M5515 3329 c-4 -6 -5 -12 -2 -15 2 -3 7 2 10 11 7 17 1 20 -8 4z"/>
<path d="M3953 3315 c-3 -9 -3 -18 0 -22 10 -10 37 6 37 22 0 20 -29 20 -37 0z"/>
<path d="M6110 3316 c0 -9 5 -16 10 -16 6 0 10 4 10 9 0 6 -4 13 -10 16 -5 3
-10 -1 -10 -9z"/>
<path d="M3871 3104 c0 -11 3 -14 6 -6 3 7 2 16 -1 19 -3 4 -6 -2 -5 -13z"/>
<path d="M5110 2965 c0 -8 5 -15 10 -15 6 0 10 7 10 15 0 8 -4 15 -10 15 -5 0
-10 -7 -10 -15z"/>
<path d="M4370 2685 c-18 -22 -2 -35 43 -34 38 0 40 1 20 11 -13 6 -23 14 -23
18 0 15 -29 18 -40 5z"/>
<path d="M5430 2630 c0 -11 5 -20 10 -20 6 0 10 9 10 20 0 11 -4 20 -10 20 -5
0 -10 -9 -10 -20z"/>
<path d="M5863 2390 c-5 -25 -7 -49 -4 -55 6 -12 23 64 18 85 -2 8 -8 -5 -14
-30z"/>
<path d="M5447 2313 c-49 -27 -75 -72 -46 -82 20 -6 64 -55 121 -133 27 -38
54 -68 59 -68 6 0 19 8 30 19 19 17 19 20 4 35 -9 9 -21 16 -26 16 -5 0 -12
12 -15 28 -4 15 -11 30 -17 33 -5 4 0 10 12 14 11 3 21 13 21 21 0 8 5 14 10
14 6 0 10 7 10 16 0 12 -5 15 -22 9 -26 -8 -96 -7 -110 1 -13 8 11 34 31 34
17 1 51 23 51 34 0 3 -12 6 -26 6 -19 0 -25 4 -20 15 8 21 -11 18 -67 -12z"/>
<path d="M5645 1960 c3 -5 8 -10 11 -10 2 0 4 5 4 10 0 6 -5 10 -11 10 -5 0
-7 -4 -4 -10z"/>
<path d="M6123 1010 c0 -25 2 -35 4 -22 2 12 2 32 0 45 -2 12 -4 2 -4 -23z"/>
<path d="M6116 631 c-4 -5 -2 -20 3 -33 9 -21 10 -21 10 10 1 32 -3 39 -13 23z"/>
<path d="M6038 580 c-5 -36 -4 -38 26 -33 17 4 24 12 24 29 0 13 -4 21 -9 19
-4 -3 -10 -1 -14 5 -11 19 -23 10 -27 -20z"/>
<path d="M6030 511 c0 -11 -11 -53 -24 -93 -35 -111 -65 -220 -68 -253 -4 -36
-3 -36 109 2 l82 28 1 153 c0 149 -1 153 -20 147 -13 -4 -31 2 -50 15 -30 21
-30 21 -30 1z"/>
</g>
</svg>
